Chunk.ufo
<glyph name="exclam" format="1">
  <advance width="308"/>
  <unicode hex="0021"/>
  <outline>
    <contour>
      <point x="28" y="50"/>
      <point x="77" y="-1"/>
      <point x="142" y="-1" type="curve" smooth="yes"/>
      <point x="215" y="-1"/>
      <point x="261" y="46"/>
      <point x="261" y="102" type="curve" smooth="yes"/>
      <point x="261" y="159"/>
      <point x="213" y="208"/>
      <point x="142" y="208" type="curve" smooth="yes"/>
      <point x="70" y="208"/>
      <point x="28" y="152"/>
      <point x="28" y="102" type="curve" smooth="yes"/>
    </contour>
    <contour>
      <point x="86" y="257" type="line"/>
      <point x="218" y="257" type="line"/>
      <point x="271" y="509" type="line"/>
      <point x="271" y="699" type="line"/>
      <point x="32" y="699" type="line"/>
      <point x="32" y="509" type="line"/>
    </contour>
  </outline>
</glyph>
<glyph name="quotedbl" format="1">
  <advance width="504"/>
  <unicode hex="0022"/>
  <outline>
    <contour>
      <point x="35" y="701" type="line"/>
      <point x="72" y="402" type="line"/>
      <point x="197" y="402" type="line"/>
      <point x="227" y="701" type="line"/>
    </contour>
    <contour>
      <point x="277" y="701" type="line"/>
      <point x="308" y="402" type="line"/>
      <point x="433" y="402" type="line"/>
      <point x="469" y="701" type="line"/>
    </contour>
  </outline>
</glyph>
<glyph name="numbersign" format="1">
  <advance width="750"/>
  <unicode hex="0023"/>
  <outline>
    <contour>
      <point x="70" y="433" type="line"/>
      <point x="190" y="433" type="line"/>
      <point x="161" y="319" type="line"/>
      <point x="15" y="319" type="line"/>
      <point x="15" y="183" type="line"/>
      <point x="126" y="183" type="line"/>
      <point x="80" y="1" type="line"/>
      <point x="212" y="-1" type="line"/>
      <point x="258" y="183" type="line"/>
      <point x="392" y="183" type="line"/>
      <point x="346" y="1" type="line"/>
      <point x="478" y="-1" type="line"/>
      <point x="524" y="183" type="line"/>
      <point x="680" y="183" type="line"/>
      <point x="680" y="319" type="line"/>
      <point x="559" y="319" type="line"/>
      <point x="588" y="433" type="line"/>
      <point x="735" y="433" type="line"/>
      <point x="735" y="569" type="line"/>
      <point x="622" y="569" type="line"/>
      <point x="669" y="752" type="line"/>
      <point x="537" y="752" type="line"/>
      <point x="490" y="569" type="line"/>
      <point x="356" y="569" type="line"/>
      <point x="403" y="752" type="line"/>
      <point x="271" y="752" type="line"/>
      <point x="224" y="569" type="line"/>
      <point x="70" y="569" type="line"/>
    </contour>
    <contour>
      <point x="322" y="433" type="line"/>
      <point x="456" y="433" type="line"/>
      <point x="427" y="319" type="line"/>
      <point x="293" y="319" type="line"/>
    </contour>
  </outline>
</glyph>
<glyph name="dollar" format="1">
  <advance width="603"/>
  <unicode hex="0024"/>
  <outline>
    <contour>
      <point x="224" y="776" type="line"/>
      <point x="224" y="692" type="line"/>
      <point x="141" y="686"/>
      <point x="41" y="629"/>
      <point x="41" y="496" type="curve" smooth="yes"/>
      <point x="41" y="272"/>
      <point x="366" y="285"/>
      <point x="366" y="211" type="curve" smooth="yes"/>
      <point x="366" y="170"/>
      <point x="322" y="162"/>
      <point x="293" y="162" type="curve"/>
      <point x="255" y="164"/>
      <point x="172" y="178"/>
      <point x="172" y="258" type="curve"/>
      <point x="15" y="258" type="line"/>
      <point x="15" y="17" type="line"/>
      <point x="161" y="17" type="line"/>
      <point x="172" y="77" type="line"/>
      <point x="189" y="62"/>
      <point x="206" y="50"/>
      <point x="224" y="40" type="curve"/>
      <point x="224" y="-91" type="line"/>
      <point x="365" y="-91" type="line"/>
      <point x="365" y="12" type="line"/>
      <point x="468" y="14"/>
      <point x="588" y="60"/>
      <point x="588" y="206" type="curve" smooth="yes"/>
      <point x="588" y="429"/>
      <point x="251" y="407"/>
      <point x="251" y="505" type="curve" smooth="yes"/>
      <point x="251" y="539"/>
      <point x="285" y="556"/>
      <point x="310" y="556" type="curve" smooth="yes"/>
      <point x="373" y="556"/>
      <point x="421" y="515"/>
      <point x="421" y="445" type="curve"/>
      <point x="575" y="445" type="line"/>
      <point x="575" y="679" type="line"/>
      <point x="429" y="679" type="line"/>
      <point x="421" y="623" type="line"/>
      <point x="408" y="645"/>
      <point x="388" y="661"/>
      <point x="365" y="672" type="curve"/>
      <point x="365" y="776" type="line"/>
    </contour>
  </outline>
</glyph>
<glyph name="percent" format="1">
  <advance width="931"/>
  <unicode hex="0025"/>
  <outline>
    <contour>
      <point x="843" y="0"/>
      <point x="916" y="87"/>
      <point x="916" y="204" type="curve" smooth="yes"/>
      <point x="916" y="330"/>
      <point x="840" y="411"/>
      <point x="710" y="411" type="curve" smooth="yes"/>
      <point x="607" y="411"/>
      <point x="508" y="329"/>
      <point x="508" y="207" type="curve" smooth="yes"/>
      <point x="508" y="80"/>
      <point x="594" y="0"/>
      <point x="714" y="0" type="curve" smooth="yes"/>
    </contour>
    <contour>
      <point x="350" y="306"/>
      <point x="423" y="393"/>
      <point x="423" y="510" type="curve" smooth="yes"/>
      <point x="423" y="636"/>
      <point x="347" y="717"/>
      <point x="217" y="717" type="curve" smooth="yes"/>
      <point x="114" y="717"/>
      <point x="15" y="635"/>
      <point x="15" y="513" type="curve" smooth="yes"/>
      <point x="15" y="386"/>
      <point x="101" y="306"/>
      <point x="221" y="306" type="curve" smooth="yes"/>
    </contour>
    <contour>
      <point x="302" y="0" type="line"/>
      <point x="735" y="699" type="line"/>
      <point x="621" y="699" type="line"/>
      <point x="189" y="0" type="line"/>
    </contour>
    <contour>
      <point x="688" y="92"/>
      <point x="657" y="135"/>
      <point x="657" y="207" type="curve" smooth="yes"/>
      <point x="657" y="277"/>
      <point x="686" y="318"/>
      <point x="711" y="317" type="curve"/>
      <point x="741" y="317"/>
      <point x="766" y="271"/>
      <point x="766" y="204" type="curve" smooth="yes"/>
      <point x="766" y="135"/>
      <point x="744" y="92"/>
      <point x="714" y="92" type="curve" smooth="yes"/>
    </contour>
    <contour>
      <point x="195" y="398"/>
      <point x="164" y="441"/>
      <point x="164" y="513" type="curve" smooth="yes"/>
      <point x="164" y="583"/>
      <point x="193" y="624"/>
      <point x="218" y="623" type="curve"/>
      <point x="248" y="623"/>
      <point x="273" y="577"/>
      <point x="273" y="510" type="curve" smooth="yes"/>
      <point x="273" y="441"/>
      <point x="251" y="398"/>
      <point x="221" y="398" type="curve" smooth="yes"/>
    </contour>
  </outline>
</glyph>
<glyph name="ampersand" format="1">
  <advance width="771"/>
  <unicode hex="0026"/>
  <outline>
    <contour>
      <point x="10" y="82"/>
      <point x="109" y="-13"/>
      <point x="275" y="-13" type="curve" smooth="yes"/>
      <point x="369" y="-13"/>
      <point x="459" y="15"/>
      <point x="512" y="64" type="curve"/>
      <point x="577" y="0" type="line"/>
      <point x="726" y="0" type="line"/>
      <point x="726" y="130" type="line"/>
      <point x="668" y="130" type="line"/>
      <point x="606" y="191" type="line"/>
      <point x="628" y="224"/>
      <point x="647" y="262"/>
      <point x="663" y="309" type="curve"/>
      <point x="761" y="309" type="line"/>
      <point x="761" y="435" type="line"/>
      <point x="547" y="435" type="line"/>
      <point x="535" y="394"/>
      <point x="519" y="347"/>
      <point x="495" y="302" type="curve"/>
      <point x="402" y="395" type="line"/>
      <point x="456" y="417"/>
      <point x="516" y="462"/>
      <point x="516" y="541" type="curve" smooth="yes"/>
      <point x="516" y="618"/>
      <point x="453" y="711"/>
      <point x="298" y="711" type="curve" smooth="yes"/>
      <point x="171" y="711"/>
      <point x="84" y="625"/>
      <point x="84" y="541" type="curve" smooth="yes"/>
      <point x="84" y="488"/>
      <point x="117" y="435"/>
      <point x="157" y="409" type="curve"/>
      <point x="42" y="350"/>
      <point x="10" y="270"/>
      <point x="10" y="205" type="curve" smooth="yes"/>
    </contour>
    <contour>
      <point x="197" y="248"/>
      <point x="238" y="285"/>
      <point x="265" y="302" type="curve"/>
      <point x="269" y="302" type="line"/>
      <point x="396" y="177" type="line"/>
      <point x="361" y="146"/>
      <point x="310" y="135"/>
      <point x="278" y="135" type="curve" smooth="yes"/>
      <point x="239" y="135"/>
      <point x="197" y="163"/>
      <point x="197" y="211" type="curve" smooth="yes"/>
    </contour>
    <contour>
      <point x="355" y="501"/>
      <point x="313" y="469"/>
      <point x="307" y="472" type="curve"/>
      <point x="286" y="481"/>
      <point x="247" y="502"/>
      <point x="247" y="544" type="curve" smooth="yes"/>
      <point x="247" y="570"/>
      <point x="267" y="599"/>
      <point x="297" y="599" type="curve" smooth="yes"/>
      <point x="340" y="599"/>
      <point x="355" y="567"/>
      <point x="355" y="538" type="curve" smooth="yes"/>
    </contour>
  </outline>
</glyph>
<glyph name="quotesingle" format="1">
  <advance width="273"/>
  <unicode hex="0027"/>
  <outline>
    <contour>
      <point x="36" y="701" type="line"/>
      <point x="73" y="402" type="line"/>
      <point x="198" y="402" type="line"/>
      <point x="234" y="701" type="line"/>
    </contour>
  </outline>
</glyph>
<glyph name="parenleft" format="1">
  <advance width="388"/>
  <unicode hex="0028"/>
  <outline>
    <contour>
      <point x="260" y="815" type="line"/>
      <point x="177" y="743"/>
      <point x="25" y="548"/>
      <point x="25" y="312" type="curve" smooth="yes"/>
      <point x="25" y="84"/>
      <point x="152" y="-111"/>
      <point x="260" y="-209" type="curve"/>
      <point x="363" y="-102" type="line"/>
      <point x="304" y="-32"/>
      <point x="209" y="89"/>
      <point x="209" y="312" type="curve" smooth="yes"/>
      <point x="209" y="528"/>
      <point x="315" y="651"/>
      <point x="363" y="709" type="curve"/>
    </contour>
  </outline>
</glyph>
<glyph name="parenright" format="1">
  <advance width="388"/>
  <unicode hex="0029"/>
  <outline>
    <contour>
      <point x="25" y="708" type="line"/>
      <point x="73" y="650"/>
      <point x="179" y="527"/>
      <point x="179" y="311" type="curve" smooth="yes"/>
      <point x="179" y="88"/>
      <point x="84" y="-33"/>
      <point x="25" y="-103" type="curve"/>
      <point x="128" y="-210" type="line"/>
      <point x="236" y="-112"/>
      <point x="363" y="83"/>
      <point x="363" y="311" type="curve" smooth="yes"/>
      <point x="363" y="547"/>
      <point x="211" y="742"/>
      <point x="128" y="814" type="curve"/>
    </contour>
  </outline>
</glyph>
<glyph name="asterisk" format="1">
  <advance width="413"/>
  <unicode hex="002A"/>
  <outline>
    <contour>
      <point x="377" y="394" type="line"/>
      <point x="287" y="490" type="line"/>
      <point x="408" y="530" type="line"/>
      <point x="367" y="628" type="line"/>
      <point x="254" y="572" type="line"/>
      <point x="270" y="699" type="line"/>
      <point x="147" y="699" type="line"/>
      <point x="160" y="575" type="line"/>
      <point x="46" y="628" type="line"/>
      <point x="5" y="530" type="line"/>
      <point x="123" y="489" type="line"/>
      <point x="36" y="395" type="line"/>
      <point x="124" y="321" type="line"/>
      <point x="207" y="435" type="line"/>
      <point x="286" y="324" type="line"/>
    </contour>
  </outline>
</glyph>
<glyph name="plus" format="1">
  <advance width="547"/>
  <unicode hex="002B"/>
  <outline>
    <contour>
      <point x="522" y="435" type="line"/>
      <point x="339" y="435" type="line"/>
      <point x="339" y="619" type="line"/>
      <point x="209" y="619" type="line"/>
      <point x="209" y="435" type="line"/>
      <point x="25" y="435" type="line"/>
      <point x="25" y="305" type="line"/>
      <point x="209" y="305" type="line"/>
      <point x="209" y="122" type="line"/>
      <point x="339" y="122" type="line"/>
      <point x="339" y="305" type="line"/>
      <point x="522" y="305" type="line"/>
    </contour>
  </outline>
</glyph>
<glyph name="comma" format="1">
  <advance width="272"/>
  <unicode hex="002C"/>
  <outline>
    <contour>
      <point x="109" y="-194" type="line"/>
      <point x="211" y="-103"/>
      <point x="275" y="19"/>
      <point x="271" y="148" type="curve"/>
      <point x="89" y="196" type="line"/>
      <point x="99" y="45"/>
      <point x="65" y="-40"/>
      <point x="-6" y="-129" type="curve"/>
    </contour>
  </outline>
</glyph>
<glyph name="hyphen" format="1">
  <advance width="340"/>
  <unicode hex="002D"/>
  <outline>
    <contour>
      <point x="25" y="172" type="line"/>
      <point x="315" y="172" type="line"/>
      <point x="315" y="305" type="line"/>
      <point x="25" y="305" type="line"/>
    </contour>
  </outline>
</glyph>
<glyph name="period" format="1">
  <advance width="258"/>
  <unicode hex="002E"/>
  <outline>
    <contour>
      <point x="15" y="51"/>
      <point x="62" y="-4"/>
      <point x="128" y="-4" type="curve" smooth="yes"/>
      <point x="203" y="-4"/>
      <point x="243" y="44"/>
      <point x="243" y="104" type="curve" smooth="yes"/>
      <point x="243" y="155"/>
      <point x="201" y="218"/>
      <point x="128" y="218" type="curve" smooth="yes"/>
      <point x="55" y="218"/>
      <point x="15" y="155"/>
      <point x="15" y="104" type="curve" smooth="yes"/>
    </contour>
  </outline>
</glyph>
<glyph name="slash" format="1">
  <advance width="524"/>
  <unicode hex="002F"/>
  <outline>
    <contour>
      <point x="147" y="-80" type="line"/>
      <point x="519" y="752" type="line"/>
      <point x="377" y="752" type="line"/>
      <point x="5" y="-78" type="line"/>
    </contour>
  </outline>
</glyph>
<glyph name="zero" format="1">
  <advance width="599"/>
  <unicode hex="0030"/>
  <outline>
    <contour>
      <point x="483" y="-12"/>
      <point x="584" y="124"/>
      <point x="584" y="346" type="curve" smooth="yes"/>
      <point x="584" y="567"/>
      <point x="493" y="712"/>
      <point x="297" y="712" type="curve" smooth="yes"/>
      <point x="131" y="712"/>
      <point x="15" y="565"/>
      <point x="15" y="353" type="curve" smooth="yes"/>
      <point x="15" y="107"/>
      <point x="135" y="-12"/>
      <point x="302" y="-12" type="curve" smooth="yes"/>
    </contour>
    <contour>
      <point x="262" y="143"/>
      <point x="213" y="224"/>
      <point x="213" y="353" type="curve" smooth="yes"/>
      <point x="213" y="475"/>
      <point x="259" y="552"/>
      <point x="296" y="551" type="curve" smooth="yes"/>
      <point x="345" y="551"/>
      <point x="383" y="465"/>
      <point x="383" y="346" type="curve" smooth="yes"/>
      <point x="383" y="224"/>
      <point x="348" y="143"/>
      <point x="302" y="143" type="curve" smooth="yes"/>
    </contour>
  </outline>
</glyph>
<glyph name="one" format="1">
  <advance width="496"/>
  <unicode hex="0031"/>
  <outline>
    <contour>
      <point x="71" y="457" type="line"/>
      <point x="171" y="504" type="line"/>
      <point x="171" y="133" type="line"/>
      <point x="71" y="133" type="line"/>
      <point x="71" y="0" type="line"/>
      <point x="471" y="0" type="line"/>
      <point x="471" y="133" type="line"/>
      <point x="378" y="133" type="line"/>
      <point x="378" y="699" type="line"/>
      <point x="200" y="699" type="line"/>
      <point x="127" y="612"/>
      <point x="82" y="596"/>
      <point x="25" y="568" type="curve"/>
    </contour>
  </outline>
</glyph>
<glyph name="two" format="1">
  <advance width="590"/>
  <unicode hex="0032"/>
  <outline>
    <contour>
      <point x="141" y="472" type="line"/>
      <point x="171" y="504"/>
      <point x="210" y="548"/>
      <point x="264" y="548" type="curve" smooth="yes"/>
      <point x="310" y="548"/>
      <point x="348" y="533"/>
      <point x="348" y="482" type="curve" smooth="yes"/>
      <point x="348" y="420"/>
      <point x="242" y="378"/>
      <point x="171" y="315" type="curve"/>
      <point x="107" y="264"/>
      <point x="80" y="235"/>
      <point x="25" y="145" type="curve"/>
      <point x="25" y="0" type="line"/>
      <point x="565" y="0" type="line"/>
      <point x="565" y="213" type="line"/>
      <point x="397" y="213" type="line"/>
      <point x="397" y="133" type="line"/>
      <point x="221" y="133" type="line"/>
      <point x="244" y="173"/>
      <point x="323" y="236"/>
      <point x="371" y="267" type="curve" smooth="yes"/>
      <point x="477" y="336"/>
      <point x="531" y="376"/>
      <point x="531" y="491" type="curve" smooth="yes"/>
      <point x="531" y="626"/>
      <point x="426" y="710"/>
      <point x="293" y="710" type="curve" smooth="yes"/>
      <point x="193" y="710"/>
      <point x="103" y="667"/>
      <point x="33" y="586" type="curve"/>
    </contour>
  </outline>
</glyph>
<glyph name="three" format="1">
  <advance width="540"/>
  <unicode hex="0033"/>
  <outline>
    <contour>
      <point x="383" y="-13"/>
      <point x="525" y="59"/>
      <point x="525" y="207" type="curve" smooth="yes"/>
      <point x="525" y="297"/>
      <point x="464" y="348"/>
      <point x="432" y="371" type="curve"/>
      <point x="458" y="391"/>
      <point x="506" y="430"/>
      <point x="506" y="498" type="curve" smooth="yes"/>
      <point x="506" y="626"/>
      <point x="414" y="710"/>
      <point x="251" y="710" type="curve" smooth="yes"/>
      <point x="160" y="710"/>
      <point x="73" y="654"/>
      <point x="37" y="615" type="curve"/>
      <point x="134" y="498" type="line"/>
      <point x="169" y="535"/>
      <point x="213" y="558"/>
      <point x="251" y="558" type="curve" smooth="yes"/>
      <point x="293" y="558"/>
      <point x="339" y="533"/>
      <point x="339" y="479" type="curve" smooth="yes"/>
      <point x="339" y="434"/>
      <point x="302" y="410"/>
      <point x="254" y="410" type="curve" smooth="yes"/>
      <point x="181" y="410" type="line"/>
      <point x="181" y="291" type="line"/>
      <point x="256" y="291" type="line" smooth="yes"/>
      <point x="306" y="291"/>
      <point x="339" y="272"/>
      <point x="339" y="218" type="curve" smooth="yes"/>
      <point x="339" y="168"/>
      <point x="305" y="141"/>
      <point x="249" y="141" type="curve" smooth="yes"/>
      <point x="192" y="141"/>
      <point x="154" y="169"/>
      <point x="117" y="206" type="curve"/>
      <point x="15" y="100" type="line"/>
      <point x="54" y="42"/>
      <point x="153" y="-13"/>
      <point x="248" y="-13" type="curve" smooth="yes"/>
    </contour>
  </outline>
</glyph>
<glyph name="four" format="1">
  <advance width="584"/>
  <unicode hex="0034"/>
  <outline>
    <contour>
      <point x="10" y="197" type="line"/>
      <point x="298" y="197" type="line"/>
      <point x="298" y="132" type="line"/>
      <point x="235" y="132" type="line"/>
      <point x="235" y="0" type="line"/>
      <point x="559" y="0" type="line"/>
      <point x="559" y="132" type="line"/>
      <point x="505" y="132" type="line"/>
      <point x="505" y="197" type="line"/>
      <point x="558" y="197" type="line"/>
      <point x="558" y="305" type="line"/>
      <point x="505" y="305" type="line"/>
      <point x="505" y="699" type="line"/>
      <point x="298" y="699" type="line"/>
      <point x="10" y="340" type="line"/>
    </contour>
    <contour>
      <point x="150" y="305" type="line"/>
      <point x="298" y="490" type="line"/>
      <point x="298" y="305" type="line"/>
    </contour>
  </outline>
</glyph>
<glyph name="five" format="1">
  <advance width="577"/>
  <unicode hex="0035"/>
  <outline>
    <contour>
      <point x="408" y="-13"/>
      <point x="562" y="72"/>
      <point x="562" y="240" type="curve" smooth="yes"/>
      <point x="562" y="395"/>
      <point x="446" y="477"/>
      <point x="329" y="477" type="curve" smooth="yes"/>
      <point x="280" y="477"/>
      <point x="241" y="466"/>
      <point x="221" y="453" type="curve"/>
      <point x="238" y="550" type="line"/>
      <point x="507" y="550" type="line"/>
      <point x="507" y="699" type="line"/>
      <point x="111" y="699" type="line"/>
      <point x="50" y="355" type="line"/>
      <point x="178" y="298" type="line"/>
      <point x="199" y="320"/>
      <point x="226" y="344"/>
      <point x="272" y="344" type="curve" smooth="yes"/>
      <point x="329" y="344"/>
      <point x="374" y="300"/>
      <point x="374" y="247" type="curve" smooth="yes"/>
      <point x="374" y="189"/>
      <point x="331" y="147"/>
      <point x="264" y="147" type="curve" smooth="yes"/>
      <point x="206" y="147"/>
      <point x="163" y="181"/>
      <point x="124" y="221" type="curve"/>
      <point x="15" y="108" type="line"/>
      <point x="56" y="46"/>
      <point x="162" y="-13"/>
      <point x="263" y="-13" type="curve" smooth="yes"/>
    </contour>
  </outline>
</glyph>
<glyph name="six" format="1">
  <advance width="581"/>
  <unicode hex="0036"/>
  <outline>
    <contour>
      <point x="546" y="631" type="line"/>
      <point x="487" y="681"/>
      <point x="377" y="712"/>
      <point x="310" y="710" type="curve" smooth="yes"/>
      <point x="47" y="702"/>
      <point x="13" y="437"/>
      <point x="16" y="304" type="curve" smooth="yes"/>
      <point x="22" y="104"/>
      <point x="143" y="-14"/>
      <point x="307" y="-9" type="curve" smooth="yes"/>
      <point x="470" y="-4"/>
      <point x="566" y="110"/>
      <point x="566" y="244" type="curve" smooth="yes"/>
      <point x="566" y="380"/>
      <point x="460" y="472"/>
      <point x="332" y="467" type="curve" smooth="yes"/>
      <point x="279" y="465"/>
      <point x="227" y="442"/>
      <point x="201" y="416" type="curve"/>
      <point x="211" y="490"/>
      <point x="258" y="550"/>
      <point x="332" y="552" type="curve" smooth="yes"/>
      <point x="393" y="552"/>
      <point x="444" y="521"/>
      <point x="478" y="501" type="curve"/>
    </contour>
    <contour>
      <point x="366" y="324"/>
      <point x="386" y="273"/>
      <point x="387" y="234" type="curve" smooth="yes"/>
      <point x="388" y="186"/>
      <point x="347" y="148"/>
      <point x="296" y="148" type="curve" smooth="yes"/>
      <point x="232" y="148"/>
      <point x="203" y="216"/>
      <point x="203" y="266" type="curve"/>
      <point x="219" y="286"/>
      <point x="259" y="321"/>
      <point x="306" y="323" type="curve" smooth="yes"/>
    </contour>
  </outline>
</glyph>
<glyph name="seven" format="1">
  <advance width="566"/>
  <unicode hex="0037"/>
  <outline>
    <contour>
      <point x="15" y="501" type="line"/>
      <point x="175" y="501" type="line"/>
      <point x="175" y="566" type="line"/>
      <point x="339" y="566" type="line"/>
      <point x="71" y="0" type="line"/>
      <point x="287" y="0" type="line"/>
      <point x="556" y="566" type="line"/>
      <point x="556" y="699" type="line"/>
      <point x="15" y="699" type="line"/>
    </contour>
  </outline>
</glyph>
<glyph name="eight" format="1">
  <advance width="559"/>
  <unicode hex="0038"/>
  <outline>
    <contour>
      <point x="15" y="82"/>
      <point x="114" y="-13"/>
      <point x="280" y="-13" type="curve" smooth="yes"/>
      <point x="441" y="-13"/>
      <point x="544" y="82"/>
      <point x="544" y="205" type="curve" smooth="yes"/>
      <point x="544" y="273"/>
      <point x="509" y="345"/>
      <point x="441" y="378" type="curve"/>
      <point x="485" y="399"/>
      <point x="525" y="448"/>
      <point x="525" y="514" type="curve" smooth="yes"/>
      <point x="525" y="625"/>
      <point x="441" y="711"/>
      <point x="286" y="711" type="curve" smooth="yes"/>
      <point x="136" y="711"/>
      <point x="48" y="625"/>
      <point x="48" y="514" type="curve" smooth="yes"/>
      <point x="48" y="466"/>
      <point x="73" y="411"/>
      <point x="123" y="381" type="curve"/>
      <point x="57" y="348"/>
      <point x="15" y="270"/>
      <point x="15" y="205" type="curve" smooth="yes"/>
    </contour>
    <contour>
      <point x="188" y="248"/>
      <point x="216" y="283"/>
      <point x="246" y="300" type="curve"/>
      <point x="292" y="298"/>
      <point x="373" y="281"/>
      <point x="373" y="211" type="curve" smooth="yes"/>
      <point x="372" y="156"/>
      <point x="330" y="129"/>
      <point x="281" y="129" type="curve" smooth="yes"/>
      <point x="231" y="129"/>
      <point x="188" y="164"/>
      <point x="188" y="211" type="curve" smooth="yes"/>
    </contour>
    <contour>
      <point x="359" y="492"/>
      <point x="336" y="468"/>
      <point x="311" y="456" type="curve"/>
      <point x="278" y="457"/>
      <point x="212" y="467"/>
      <point x="212" y="522" type="curve" smooth="yes"/>
      <point x="212" y="555"/>
      <point x="245" y="585"/>
      <point x="284" y="585" type="curve" smooth="yes"/>
      <point x="324" y="585"/>
      <point x="359" y="558"/>
      <point x="359" y="522" type="curve" smooth="yes"/>
    </contour>
  </outline>
</glyph>
<glyph name="nine" format="1">
  <advance width="587"/>
  <unicode hex="0039"/>
  <outline>
    <contour>
      <point x="35" y="70" type="line"/>
      <point x="94" y="20"/>
      <point x="204" y="-11"/>
      <point x="271" y="-9" type="curve" smooth="yes"/>
      <point x="534" y="-1"/>
      <point x="575" y="245"/>
      <point x="571" y="397" type="curve" smooth="yes"/>
      <point x="565" y="597"/>
      <point x="438" y="715"/>
      <point x="274" y="710" type="curve" smooth="yes"/>
      <point x="111" y="705"/>
      <point x="15" y="591"/>
      <point x="15" y="457" type="curve" smooth="yes"/>
      <point x="15" y="321"/>
      <point x="121" y="229"/>
      <point x="249" y="234" type="curve" smooth="yes"/>
      <point x="302" y="236"/>
      <point x="345" y="259"/>
      <point x="371" y="285" type="curve"/>
      <point x="372" y="197"/>
      <point x="323" y="151"/>
      <point x="249" y="149" type="curve" smooth="yes"/>
      <point x="188" y="149"/>
      <point x="137" y="180"/>
      <point x="103" y="200" type="curve"/>
    </contour>
    <contour>
      <point x="215" y="377"/>
      <point x="195" y="428"/>
      <point x="194" y="467" type="curve" smooth="yes"/>
      <point x="193" y="515"/>
      <point x="234" y="553"/>
      <point x="285" y="553" type="curve" smooth="yes"/>
      <point x="349" y="553"/>
      <point x="369" y="485"/>
      <point x="369" y="435" type="curve"/>
      <point x="353" y="415"/>
      <point x="322" y="380"/>
      <point x="275" y="378" type="curve" smooth="yes"/>
    </contour>
  </outline>
</glyph>
<glyph name="colon" format="1">
  <advance width="254"/>
  <unicode hex="003A"/>
  <outline>
    <contour>
      <point x="15" y="46"/>
      <point x="61" y="-8"/>
      <point x="126" y="-8" type="curve" smooth="yes"/>
      <point x="194" y="-8"/>
      <point x="239" y="39"/>
      <point x="239" y="98" type="curve" smooth="yes"/>
      <point x="239" y="148"/>
      <point x="198" y="210"/>
      <point x="126" y="210" type="curve" smooth="yes"/>
      <point x="54" y="210"/>
      <point x="15" y="148"/>
      <point x="15" y="98" type="curve" smooth="yes"/>
    </contour>
    <contour>
      <point x="15" y="350"/>
      <point x="64" y="296"/>
      <point x="126" y="296" type="curve" smooth="yes"/>
      <point x="197" y="296"/>
      <point x="239" y="343"/>
      <point x="239" y="402" type="curve" smooth="yes"/>
      <point x="239" y="452"/>
      <point x="198" y="514"/>
      <point x="126" y="514" type="curve" smooth="yes"/>
      <point x="54" y="514"/>
      <point x="15" y="452"/>
      <point x="15" y="402" type="curve" smooth="yes"/>
    </contour>
  </outline>
</glyph>
<glyph name="semicolon" format="1">
  <advance width="302"/>
  <unicode hex="003B"/>
  <outline>
    <contour>
      <point x="59" y="332"/>
      <point x="109" y="277"/>
      <point x="172" y="277" type="curve" smooth="yes"/>
      <point x="244" y="277"/>
      <point x="287" y="325"/>
      <point x="287" y="385" type="curve" smooth="yes"/>
      <point x="287" y="436"/>
      <point x="245" y="499"/>
      <point x="172" y="499" type="curve" smooth="yes"/>
      <point x="99" y="499"/>
      <point x="59" y="436"/>
      <point x="59" y="385" type="curve" smooth="yes"/>
    </contour>
    <contour>
      <point x="5" y="-129" type="line"/>
      <point x="76" y="-40"/>
      <point x="110" y="45"/>
      <point x="100" y="196" type="curve"/>
      <point x="282" y="148" type="line"/>
      <point x="286" y="19"/>
      <point x="222" y="-103"/>
      <point x="120" y="-194" type="curve"/>
    </contour>
  </outline>
</glyph>
<glyph name="less" format="1">
  <advance width="549"/>
  <unicode hex="003C"/>
  <outline>
    <contour>
      <point x="35" y="339" type="line"/>
      <point x="465" y="162" type="line"/>
      <point x="514" y="284" type="line"/>
      <point x="208" y="402" type="line"/>
      <point x="514" y="519" type="line"/>
      <point x="465" y="641" type="line"/>
      <point x="35" y="464" type="line"/>
    </contour>
  </outline>
</glyph>
<glyph name="equal" format="1">
  <advance width="462"/>
  <unicode hex="003D"/>
  <outline>
    <contour>
      <point x="25" y="172" type="line"/>
      <point x="437" y="172" type="line"/>
      <point x="437" y="305" type="line"/>
      <point x="25" y="305" type="line"/>
    </contour>
    <contour>
      <point x="25" y="393" type="line"/>
      <point x="437" y="393" type="line"/>
      <point x="437" y="526" type="line"/>
      <point x="25" y="526" type="line"/>
    </contour>
  </outline>
</glyph>
<glyph name="greater" format="1">
  <advance width="549"/>
  <unicode hex="003E"/>
  <outline>
    <contour>
      <point x="514" y="465" type="line"/>
      <point x="84" y="642" type="line"/>
      <point x="35" y="520" type="line"/>
      <point x="341" y="402" type="line"/>
      <point x="35" y="285" type="line"/>
      <point x="84" y="163" type="line"/>
      <point x="514" y="340" type="line"/>
    </contour>
  </outline>
</glyph>
<glyph name="question" format="1">
  <advance width="520"/>
  <unicode hex="003F"/>
  <outline>
    <contour>
      <point x="110" y="477" type="line"/>
      <point x="144" y="517"/>
      <point x="197" y="559"/>
      <point x="240" y="559" type="curve" smooth="yes"/>
      <point x="275" y="559"/>
      <point x="314" y="550"/>
      <point x="314" y="512" type="curve" smooth="yes"/>
      <point x="314" y="457"/>
      <point x="155" y="405"/>
      <point x="155" y="313" type="curve" smooth="yes"/>
      <point x="156" y="233" type="line"/>
      <point x="341" y="233" type="line"/>
      <point x="341" y="288" type="line" smooth="yes"/>
      <point x="341" y="348"/>
      <point x="500" y="380"/>
      <point x="500" y="510" type="curve" smooth="yes"/>
      <point x="500" y="645"/>
      <point x="395" y="715"/>
      <point x="262" y="715" type="curve" smooth="yes"/>
      <point x="162" y="715"/>
      <point x="72" y="667"/>
      <point x="2" y="586" type="curve"/>
    </contour>
    <contour>
      <point x="129" y="50"/>
      <point x="178" y="-1"/>
      <point x="243" y="-1" type="curve" smooth="yes"/>
      <point x="316" y="-1"/>
      <point x="362" y="46"/>
      <point x="362" y="102" type="curve" smooth="yes"/>
      <point x="362" y="159"/>
      <point x="314" y="208"/>
      <point x="243" y="208" type="curve" smooth="yes"/>
      <point x="171" y="208"/>
      <point x="129" y="152"/>
      <point x="129" y="102" type="curve" smooth="yes"/>
    </contour>
  </outline>
</glyph>
<glyph name="at" format="1">
  <advance width="779"/>
  <unicode hex="0040"/>
  <outline>
    <contour>
      <point x="257" y="451"/>
      <point x="187" y="324"/>
      <point x="187" y="232" type="curve" smooth="yes"/>
      <point x="187" y="109"/>
      <point x="279" y="28"/>
      <point x="368" y="28" type="curve" smooth="yes"/>
      <point x="409" y="28"/>
      <point x="448" y="38"/>
      <point x="500" y="76" type="curve"/>
      <point x="515" y="62"/>
      <point x="536" y="50"/>
      <point x="590" y="43" type="curve"/>
      <point x="737" y="43"/>
      <point x="774" y="189"/>
      <point x="774" y="275" type="curve" smooth="yes"/>
      <point x="774" y="473"/>
      <point x="625" y="631"/>
      <point x="379" y="631" type="curve" smooth="yes"/>
      <point x="119" y="631"/>
      <point x="5" y="394"/>
      <point x="5" y="227" type="curve" smooth="yes"/>
      <point x="5" y="-3"/>
      <point x="193" y="-156"/>
      <point x="398" y="-156" type="curve" smooth="yes"/>
      <point x="576" y="-156"/>
      <point x="678" y="-68"/>
      <point x="678" y="-68" type="curve"/>
      <point x="630" y="1" type="line"/>
      <point x="630" y="1"/>
      <point x="548" y="-72"/>
      <point x="398" y="-72" type="curve" smooth="yes"/>
      <point x="224" y="-72"/>
      <point x="89" y="63"/>
      <point x="89" y="227" type="curve" smooth="yes"/>
      <point x="89" y="358"/>
      <point x="177" y="546"/>
      <point x="379" y="546" type="curve" smooth="yes"/>
      <point x="573" y="546"/>
      <point x="691" y="426"/>
      <point x="691" y="275" type="curve" smooth="yes"/>
      <point x="691" y="221"/>
      <point x="670" y="128"/>
      <point x="590" y="128" type="curve" smooth="yes"/>
      <point x="580" y="128"/>
      <point x="571" y="129"/>
      <point x="553" y="140" type="curve"/>
      <point x="553" y="141"/>
      <point x="553" y="141"/>
      <point x="552" y="141" type="curve"/>
      <point x="592" y="426" type="line"/>
      <point x="493" y="439" type="line"/>
      <point x="487" y="399" type="line"/>
      <point x="463" y="428"/>
      <point x="430" y="451"/>
      <point x="389" y="451" type="curve" smooth="yes"/>
    </contour>
    <contour>
      <point x="452" y="152" type="line"/>
      <point x="421" y="134"/>
      <point x="395" y="128"/>
      <point x="368" y="128" type="curve" smooth="yes"/>
      <point x="333" y="128"/>
      <point x="297" y="169"/>
      <point x="297" y="232" type="curve" smooth="yes"/>
      <point x="297" y="282"/>
      <point x="329" y="351"/>
      <point x="389" y="351" type="curve" smooth="yes"/>
      <point x="433" y="351"/>
      <point x="459" y="307"/>
      <point x="471" y="282" type="curve"/>
    </contour>
  </outline>
</glyph>
<glyph name="A" format="1">
  <advance width="823"/>
  <unicode hex="0041"/>
  <outline>
    <contour>
      <point x="808" y="131" type="line"/>
      <point x="738" y="131" type="line"/>
      <point x="561" y="699" type="line"/>
      <point x="177" y="699" type="line"/>
      <point x="177" y="570" type="line"/>
      <point x="218" y="570" type="line"/>
      <point x="83" y="131" type="line"/>
      <point x="15" y="131" type="line"/>
      <point x="15" y="0" type="line"/>
      <point x="333" y="0" type="line"/>
      <point x="333" y="131" type="line"/>
      <point x="255" y="131" type="line"/>
      <point x="276" y="199" type="line"/>
      <point x="481" y="199" type="line"/>
      <point x="502" y="131" type="line"/>
      <point x="407" y="131" type="line"/>
      <point x="407" y="0" type="line"/>
      <point x="808" y="0" type="line"/>
    </contour>
    <contour>
      <point x="378" y="535" type="line"/>
      <point x="444" y="319" type="line"/>
      <point x="313" y="319" type="line"/>
    </contour>
    <contour>
      <point x="412" y="0" type="move" name="bottom"/>
    </contour>
    <contour>
      <point x="741" y="10" type="move" name="ogonek"/>
    </contour>
    <contour>
      <point x="412" y="699" type="move" name="top"/>
    </contour>
  </outline>
</glyph>
<glyph name="B" format="1">
  <advance width="687"/>
  <unicode hex="0042"/>
  <outline>
    <contour>
      <point x="405" y="0" type="line" smooth="yes"/>
      <point x="598" y="0"/>
      <point x="677" y="62"/>
      <point x="677" y="203" type="curve" smooth="yes"/>
      <point x="677" y="300"/>
      <point x="617" y="353"/>
      <point x="545" y="373" type="curve"/>
      <point x="620" y="403"/>
      <point x="643" y="444"/>
      <point x="643" y="528" type="curve" smooth="yes"/>
      <point x="643" y="637"/>
      <point x="564" y="699"/>
      <point x="398" y="699" type="curve" smooth="yes"/>
      <point x="25" y="699" type="line"/>
      <point x="25" y="570" type="line"/>
      <point x="83" y="570" type="line"/>
      <point x="83" y="130" type="line"/>
      <point x="25" y="130" type="line"/>
      <point x="25" y="0" type="line"/>
    </contour>
    <contour>
      <point x="290" y="130" type="line"/>
      <point x="290" y="304" type="line"/>
      <point x="367" y="304" type="line" smooth="yes"/>
      <point x="422" y="304"/>
      <point x="451" y="267"/>
      <point x="451" y="216" type="curve" smooth="yes"/>
      <point x="451" y="162"/>
      <point x="412" y="130"/>
      <point x="370" y="130" type="curve" smooth="yes"/>
    </contour>
    <contour>
      <point x="353" y="567" type="line" smooth="yes"/>
      <point x="391" y="567"/>
      <point x="419" y="540"/>
      <point x="419" y="494" type="curve" smooth="yes"/>
      <point x="419" y="446"/>
      <point x="404" y="417"/>
      <point x="351" y="417" type="curve" smooth="yes"/>
      <point x="290" y="417" type="line"/>
      <point x="290" y="567" type="line"/>
    </contour>
  </outline>
</glyph>
<glyph name="C" format="1">
  <advance width="686"/>
  <unicode hex="0043"/>
  <outline>
    <contour>
      <point x="554" y="253" type="line"/>
      <point x="545" y="243"/>
      <point x="479" y="155"/>
      <point x="395" y="155" type="curve" smooth="yes"/>
      <point x="300" y="155"/>
      <point x="249" y="244"/>
      <point x="249" y="343" type="curve" smooth="yes"/>
      <point x="249" y="452"/>
      <point x="296" y="541"/>
      <point x="368" y="541" type="curve" smooth="yes"/>
      <point x="439" y="541"/>
      <point x="471" y="480"/>
      <point x="474" y="415" type="curve"/>
      <point x="653" y="415" type="line"/>
      <point x="653" y="699" type="line"/>
      <point x="496" y="699" type="line"/>
      <point x="473" y="643" type="line"/>
      <point x="464" y="655"/>
      <point x="419" y="711"/>
      <point x="319" y="711" type="curve" smooth="yes"/>
      <point x="188" y="711"/>
      <point x="15" y="573"/>
      <point x="15" y="343" type="curve" smooth="yes"/>
      <point x="15" y="120"/>
      <point x="156" y="-16"/>
      <point x="368" y="-16" type="curve" smooth="yes"/>
      <point x="499" y="-16"/>
      <point x="603" y="50"/>
      <point x="671" y="125" type="curve"/>
    </contour>
    <contour>
      <point x="343" y="0" type="move" name="bottom"/>
    </contour>
    <contour>
      <point x="343" y="699" type="move" name="top"/>
    </contour>
  </outline>
</glyph>
<glyph name="D" format="1">
  <advance width="720"/>
  <unicode hex="0044"/>
  <outline>
    <contour>
      <point x="326" y="0" type="line" smooth="yes"/>
      <point x="572" y="0"/>
      <point x="710" y="131"/>
      <point x="710" y="359" type="curve" smooth="yes"/>
      <point x="710" y="550"/>
      <point x="572" y="699"/>
      <point x="330" y="699" type="curve" smooth="yes"/>
      <point x="25" y="699" type="line"/>
      <point x="25" y="567" type="line"/>
      <point x="87" y="567" type="line"/>
      <point x="87" y="133" type="line"/>
      <point x="25" y="133" type="line"/>
      <point x="25" y="0" type="line"/>
    </contour>
    <contour>
      <point x="480" y="234"/>
      <point x="436" y="135"/>
      <point x="330" y="133" type="curve" smooth="yes"/>
      <point x="292" y="133" type="line"/>
      <point x="292" y="567" type="line"/>
      <point x="330" y="567" type="line" smooth="yes"/>
      <point x="436" y="567"/>
      <point x="480" y="466"/>
      <point x="480" y="359" type="curve" smooth="yes"/>
    </contour>
  </outline>
</glyph>
<glyph name="E" format="1">
  <advance width="653"/>
  <unicode hex="0045"/>
  <outline>
    <contour>
      <point x="25" y="567" type="line"/>
      <point x="88" y="567" type="line"/>
      <point x="88" y="133" type="line"/>
      <point x="25" y="133" type="line"/>
      <point x="25" y="0" type="line"/>
      <point x="628" y="0" type="line"/>
      <point x="628" y="226" type="line"/>
      <point x="455" y="226" type="line"/>
      <point x="455" y="133" type="line"/>
      <point x="295" y="133" type="line"/>
      <point x="295" y="296" type="line"/>
      <point x="485" y="296" type="line"/>
      <point x="485" y="429" type="line"/>
      <point x="295" y="429" type="line"/>
      <point x="295" y="567" type="line"/>
      <point x="455" y="567" type="line"/>
      <point x="455" y="478" type="line"/>
      <point x="628" y="478" type="line"/>
      <point x="628" y="699" type="line"/>
      <point x="25" y="699" type="line"/>
    </contour>
    <contour>
      <point x="327" y="0" type="move" name="bottom"/>
    </contour>
    <contour>
      <point x="567" y="10" type="move" name="ogonek"/>
    </contour>
    <contour>
      <point x="327" y="699" type="move" name="top"/>
    </contour>
    <contour>
      <point x="20" y="699" type="move" name="topleft"/>
    </contour>
  </outline>
</glyph>
<glyph name="F" format="1">
  <advance width="638"/>
  <unicode hex="0046"/>
  <outline>
    <contour>
      <point x="25" y="567" type="line"/>
      <point x="87" y="567" type="line"/>
      <point x="87" y="133" type="line"/>
      <point x="25" y="133" type="line"/>
      <point x="25" y="0" type="line"/>
      <point x="397" y="0" type="line"/>
      <point x="397" y="133" type="line"/>
      <point x="295" y="133" type="line"/>
      <point x="295" y="260" type="line"/>
      <point x="485" y="260" type="line"/>
      <point x="485" y="393" type="line"/>
      <point x="295" y="393" type="line"/>
      <point x="295" y="567" type="line"/>
      <point x="446" y="567" type="line"/>
      <point x="446" y="478" type="line"/>
      <point x="623" y="478" type="line"/>
      <point x="623" y="699" type="line"/>
      <point x="25" y="699" type="line"/>
    </contour>
    <contour>
      <point x="319" y="0" type="move" name="bottom"/>
    </contour>
    <contour>
      <point x="319" y="699" type="move" name="top"/>
    </contour>
  </outline>
</glyph>
<glyph name="G" format="1">
  <advance width="776"/>
  <unicode hex="0047"/>
  <outline>
    <contour>
      <point x="521" y="0" type="line"/>
      <point x="721" y="0" type="line"/>
      <point x="721" y="250" type="line"/>
      <point x="761" y="250" type="line"/>
      <point x="761" y="357" type="line"/>
      <point x="429" y="357" type="line"/>
      <point x="429" y="250" type="line"/>
      <point x="490" y="250" type="line"/>
      <point x="490" y="208" type="line"/>
      <point x="475" y="182"/>
      <point x="451" y="159"/>
      <point x="394" y="159" type="curve" smooth="yes"/>
      <point x="307" y="159"/>
      <point x="257" y="241"/>
      <point x="257" y="343" type="curve" smooth="yes"/>
      <point x="257" y="443"/>
      <point x="313" y="531"/>
      <point x="394" y="531" type="curve" smooth="yes"/>
      <point x="453" y="531"/>
      <point x="505" y="485"/>
      <point x="508" y="404" type="curve"/>
      <point x="687" y="404" type="line"/>
      <point x="687" y="699" type="line"/>
      <point x="538" y="699" type="line"/>
      <point x="517" y="627" type="line"/>
      <point x="501" y="643"/>
      <point x="467" y="711"/>
      <point x="322" y="711" type="curve" smooth="yes"/>
      <point x="166" y="711"/>
      <point x="15" y="561"/>
      <point x="15" y="343" type="curve" smooth="yes"/>
      <point x="15" y="127"/>
      <point x="154" y="-9"/>
      <point x="329" y="-9" type="curve" smooth="yes"/>
      <point x="406" y="-9"/>
      <point x="468" y="26"/>
      <point x="490" y="63" type="curve"/>
    </contour>
  </outline>
</glyph>
<glyph name="H" format="1">
  <advance width="768"/>
  <unicode hex="0048"/>
  <outline>
    <contour>
      <point x="25" y="567" type="line"/>
      <point x="80" y="567" type="line"/>
      <point x="80" y="132" type="line"/>
      <point x="25" y="132" type="line"/>
      <point x="25" y="0" type="line"/>
      <point x="349" y="0" type="line"/>
      <point x="349" y="132" type="line"/>
      <point x="287" y="132" type="line"/>
      <point x="287" y="283" type="line"/>
      <point x="477" y="283" type="line"/>
      <point x="477" y="132" type="line"/>
      <point x="418" y="132" type="line"/>
      <point x="418" y="0" type="line"/>
      <point x="743" y="0" type="line"/>
      <point x="743" y="132" type="line"/>
      <point x="685" y="132" type="line"/>
      <point x="685" y="567" type="line"/>
      <point x="743" y="567" type="line"/>
      <point x="743" y="699" type="line"/>
      <point x="418" y="699" type="line"/>
      <point x="418" y="567" type="line"/>
      <point x="477" y="567" type="line"/>
      <point x="477" y="416" type="line"/>
      <point x="287" y="416" type="line"/>
      <point x="287" y="567" type="line"/>
      <point x="349" y="567" type="line"/>
      <point x="349" y="699" type="line"/>
      <point x="25" y="699" type="line"/>
    </contour>
    <contour>
      <point x="384" y="0" type="move" name="bottom"/>
    </contour>
    <contour>
      <point x="384" y="350" type="move" name="center"/>
    </contour>
    <contour>
      <point x="384" y="699" type="move" name="top"/>
    </contour>
    <contour>
      <point x="20" y="699" type="move" name="topleft"/>
    </contour>
  </outline>
</glyph>
<glyph name="I" format="1">
  <advance width="382"/>
  <unicode hex="0049"/>
  <outline>
    <contour>
      <point x="25" y="567" type="line"/>
      <point x="88" y="567" type="line"/>
      <point x="88" y="133" type="line"/>
      <point x="25" y="133" type="line"/>
      <point x="25" y="0" type="line"/>
      <point x="357" y="0" type="line"/>
      <point x="357" y="133" type="line"/>
      <point x="295" y="133" type="line"/>
      <point x="295" y="567" type="line"/>
      <point x="357" y="567" type="line"/>
      <point x="357" y="699" type="line"/>
      <point x="25" y="699" type="line"/>
    </contour>
    <contour>
      <point x="191" y="0" type="move" name="bottom"/>
    </contour>
    <contour>
      <point x="344" y="10" type="move" name="ogonek"/>
    </contour>
    <contour>
      <point x="191" y="699" type="move" name="top"/>
    </contour>
    <contour>
      <point x="20" y="699" type="move" name="topleft"/>
    </contour>
  </outline>
</glyph>
<glyph name="J" format="1">
  <advance width="463"/>
  <unicode hex="004A"/>
  <outline>
    <contour>
      <point x="21" y="-193" type="line"/>
      <point x="36" y="-199"/>
      <point x="54" y="-204"/>
      <point x="73" y="-204" type="curve" smooth="yes"/>
      <point x="279" y="-204"/>
      <point x="355" y="-103"/>
      <point x="355" y="74" type="curve" smooth="yes"/>
      <point x="355" y="568" type="line"/>
      <point x="438" y="568" type="line"/>
      <point x="438" y="699" type="line"/>
      <point x="62" y="699" type="line"/>
      <point x="62" y="568" type="line"/>
      <point x="148" y="568" type="line"/>
      <point x="148" y="74" type="line" smooth="yes"/>
      <point x="148" y="-33"/>
      <point x="115" y="-70"/>
      <point x="65" y="-70" type="curve" smooth="yes"/>
      <point x="47" y="-70"/>
      <point x="33" y="-67"/>
      <point x="20" y="-61" type="curve"/>
    </contour>
  </outline>
</glyph>
<glyph name="K" format="1">
  <advance width="815"/>
  <unicode hex="004B"/>
  <outline>
    <contour>
      <point x="340" y="699" type="line"/>
      <point x="25" y="699" type="line"/>
      <point x="25" y="570" type="line"/>
      <point x="79" y="570" type="line"/>
      <point x="79" y="130" type="line"/>
      <point x="25" y="130" type="line"/>
      <point x="25" y="0" type="line"/>
      <point x="340" y="0" type="line"/>
      <point x="340" y="130" type="line"/>
      <point x="286" y="130" type="line"/>
      <point x="286" y="237" type="line"/>
      <point x="360" y="300" type="line"/>
      <point x="468" y="130" type="line"/>
      <point x="400" y="130" type="line"/>
      <point x="400" y="0" type="line"/>
      <point x="790" y="0" type="line"/>
      <point x="790" y="130" type="line"/>
      <point x="732" y="130" type="line"/>
      <point x="530" y="445" type="line"/>
      <point x="675" y="570" type="line"/>
      <point x="733" y="570" type="line"/>
      <point x="733" y="699" type="line"/>
      <point x="400" y="699" type="line"/>
      <point x="400" y="570" type="line"/>
      <point x="472" y="570" type="line"/>
      <point x="286" y="407" type="line"/>
      <point x="286" y="570" type="line"/>
      <point x="340" y="570" type="line"/>
    </contour>
  </outline>
</glyph>
<glyph name="L" format="1">
  <advance width="610"/>
  <unicode hex="004C"/>
  <outline>
    <contour>
      <point x="25" y="567" type="line"/>
      <point x="80" y="567" type="line"/>
      <point x="80" y="133" type="line"/>
      <point x="25" y="133" type="line"/>
      <point x="25" y="0" type="line"/>
      <point x="585" y="0" type="line"/>
      <point x="585" y="260" type="line"/>
      <point x="417" y="260" type="line"/>
      <point x="417" y="133" type="line"/>
      <point x="288" y="133" type="line"/>
      <point x="288" y="567" type="line"/>
      <point x="341" y="567" type="line"/>
      <point x="341" y="699" type="line"/>
      <point x="25" y="699" type="line"/>
    </contour>
    <contour>
      <point x="305" y="0" type="move" name="bottom"/>
    </contour>
    <contour>
      <point x="305" y="350" type="move" name="center"/>
    </contour>
    <contour>
      <point x="305" y="699" type="move" name="top"/>
    </contour>
    <contour>
      <point x="590" y="699" type="move" name="topright"/>
    </contour>
  </outline>
</glyph>
<glyph name="M" format="1">
  <advance width="1008"/>
  <unicode hex="004D"/>
  <outline>
    <contour>
      <point x="723" y="523" type="line"/>
      <point x="723" y="464" type="line"/>
      <point x="724" y="130" type="line"/>
      <point x="667" y="130" type="line"/>
      <point x="667" y="0" type="line"/>
      <point x="983" y="0" type="line"/>
      <point x="983" y="130" type="line"/>
      <point x="928" y="130" type="line"/>
      <point x="928" y="570" type="line"/>
      <point x="983" y="570" type="line"/>
      <point x="983" y="699" type="line"/>
      <point x="602" y="699" type="line"/>
      <point x="506" y="325" type="line"/>
      <point x="405" y="699" type="line"/>
      <point x="26" y="699" type="line"/>
      <point x="26" y="570" type="line"/>
      <point x="79" y="570" type="line"/>
      <point x="79" y="129" type="line"/>
      <point x="25" y="129" type="line"/>
      <point x="25" y="0" type="line"/>
      <point x="296" y="0" type="line"/>
      <point x="296" y="129" type="line"/>
      <point x="239" y="129" type="line"/>
      <point x="239" y="523" type="line"/>
      <point x="243" y="523" type="line"/>
      <point x="246" y="473"/>
      <point x="259" y="416"/>
      <point x="264" y="399" type="curve" smooth="yes"/>
      <point x="376" y="0" type="line"/>
      <point x="585" y="0" type="line"/>
      <point x="690" y="389" type="line" smooth="yes"/>
      <point x="697" y="412"/>
      <point x="711" y="478"/>
      <point x="719" y="523" type="curve"/>
    </contour>
  </outline>
</glyph>
<glyph name="N" format="1">
  <advance width="816"/>
  <unicode hex="004E"/>
  <outline>
    <contour>
      <point x="791" y="699" type="line"/>
      <point x="490" y="699" type="line"/>
      <point x="490" y="570" type="line"/>
      <point x="558" y="570" type="line"/>
      <point x="559" y="332" type="line"/>
      <point x="313" y="699" type="line"/>
      <point x="26" y="699" type="line"/>
      <point x="26" y="570" type="line"/>
      <point x="84" y="570" type="line"/>
      <point x="84" y="129" type="line"/>
      <point x="25" y="129" type="line"/>
      <point x="25" y="0" type="line"/>
      <point x="332" y="0" type="line"/>
      <point x="332" y="129" type="line"/>
      <point x="255" y="129" type="line"/>
      <point x="255" y="381" type="line"/>
      <point x="510" y="0" type="line"/>
      <point x="725" y="0" type="line"/>
      <point x="725" y="570" type="line"/>
      <point x="791" y="570" type="line"/>
    </contour>
    <contour>
      <point x="408" y="0" type="move" name="bottom"/>
    </contour>
    <contour>
      <point x="408" y="699" type="move" name="top"/>
    </contour>
  </outline>
</glyph>
<glyph name="O" format="1">
  <advance width="740"/>
  <unicode hex="004F"/>
  <outline>
    <contour>
      <point x="599" y="-18"/>
      <point x="725" y="120"/>
      <point x="725" y="346" type="curve" smooth="yes"/>
      <point x="725" y="571"/>
      <point x="611" y="718"/>
      <point x="366" y="718" type="curve" smooth="yes"/>
      <point x="159" y="718"/>
      <point x="15" y="569"/>
      <point x="15" y="353" type="curve" smooth="yes"/>
      <point x="15" y="103"/>
      <point x="164" y="-18"/>
      <point x="373" y="-18" type="curve" smooth="yes"/>
    </contour>
    <contour>
      <point x="309" y="139"/>
      <point x="262" y="222"/>
      <point x="262" y="353" type="curve" smooth="yes"/>
      <point x="262" y="477"/>
      <point x="304" y="565"/>
      <point x="365" y="564" type="curve" smooth="yes"/>
      <point x="442" y="564"/>
      <point x="475" y="467"/>
      <point x="475" y="346" type="curve" smooth="yes"/>
      <point x="475" y="222"/>
      <point x="436" y="139"/>
      <point x="373" y="139" type="curve" smooth="yes"/>
    </contour>
    <contour>
      <point x="370" y="0" type="move" name="bottom"/>
    </contour>
    <contour>
      <point x="370" y="350" type="move" name="center"/>
    </contour>
    <contour>
      <point x="666" y="10" type="move" name="ogonek"/>
    </contour>
    <contour>
      <point x="370" y="699" type="move" name="top"/>
    </contour>
    <contour>
      <point x="20" y="699" type="move" name="topleft"/>
    </contour>
    <contour>
      <point x="720" y="699" type="move" name="topright"/>
    </contour>
  </outline>
</glyph>
<glyph name="P" format="1">
  <advance width="640"/>
  <unicode hex="0050"/>
  <outline>
    <contour>
      <point x="25" y="568" type="line"/>
      <point x="81" y="568" type="line"/>
      <point x="81" y="132" type="line"/>
      <point x="25" y="132" type="line"/>
      <point x="25" y="0" type="line"/>
      <point x="347" y="0" type="line"/>
      <point x="347" y="132" type="line"/>
      <point x="286" y="132" type="line"/>
      <point x="286" y="287" type="line"/>
      <point x="362" y="287" type="line" smooth="yes"/>
      <point x="505" y="287"/>
      <point x="625" y="353"/>
      <point x="625" y="485" type="curve" smooth="yes"/>
      <point x="625" y="599"/>
      <point x="581" y="699"/>
      <point x="349" y="699" type="curve" smooth="yes"/>
      <point x="25" y="699" type="line"/>
    </contour>
    <contour>
      <point x="336" y="569" type="line" smooth="yes"/>
      <point x="394" y="569"/>
      <point x="429" y="537"/>
      <point x="429" y="478" type="curve" smooth="yes"/>
      <point x="429" y="425"/>
      <point x="389" y="395"/>
      <point x="331" y="395" type="curve" smooth="yes"/>
      <point x="286" y="395" type="line"/>
      <point x="286" y="569" type="line"/>
    </contour>
  </outline>
</glyph>
<glyph name="Q" format="1">
  <advance width="755"/>
  <unicode hex="0051"/>
  <outline>
    <contour>
      <point x="384" y="0"/>
      <point x="411" y="2"/>
      <point x="435" y="6" type="curve"/>
      <point x="457" y="-53"/>
      <point x="508" y="-105"/>
      <point x="590" y="-105" type="curve" smooth="yes"/>
      <point x="690" y="-105"/>
      <point x="740" y="-34"/>
      <point x="740" y="55" type="curve" smooth="yes"/>
      <point x="740" y="106" type="line"/>
      <point x="674" y="106" type="line"/>
      <point x="674" y="77" type="line" smooth="yes"/>
      <point x="674" y="60"/>
      <point x="672" y="32"/>
      <point x="654" y="32" type="curve" smooth="yes"/>
      <point x="629" y="32"/>
      <point x="618" y="66"/>
      <point x="610" y="97" type="curve"/>
      <point x="665" y="157"/>
      <point x="693" y="242"/>
      <point x="693" y="347" type="curve" smooth="yes"/>
      <point x="693" y="560"/>
      <point x="587" y="702"/>
      <point x="351" y="702" type="curve" smooth="yes"/>
      <point x="150" y="702"/>
      <point x="15" y="558"/>
      <point x="15" y="354" type="curve" smooth="yes"/>
      <point x="15" y="118"/>
      <point x="155" y="0"/>
      <point x="357" y="0" type="curve" smooth="yes"/>
    </contour>
    <contour>
      <point x="298" y="347"/>
      <point x="262" y="323"/>
      <point x="239" y="299" type="curve"/>
      <point x="236" y="316"/>
      <point x="235" y="334"/>
      <point x="235" y="354" type="curve" smooth="yes"/>
      <point x="235" y="471"/>
      <point x="290" y="557"/>
      <point x="350" y="556" type="curve" smooth="yes"/>
      <point x="424" y="556"/>
      <point x="471" y="462"/>
      <point x="471" y="347" type="curve" smooth="yes"/>
      <point x="471" y="333"/>
      <point x="470" y="320"/>
      <point x="469" y="308" type="curve"/>
      <point x="437" y="331"/>
      <point x="400" y="347"/>
      <point x="357" y="347" type="curve" smooth="yes"/>
    </contour>
    <contour>
      <point x="333" y="150"/>
      <point x="310" y="161"/>
      <point x="290" y="183" type="curve"/>
      <point x="304" y="223"/>
      <point x="324" y="256"/>
      <point x="357" y="256" type="curve" smooth="yes"/>
      <point x="391" y="256"/>
      <point x="403" y="222"/>
      <point x="410" y="172" type="curve"/>
      <point x="394" y="158"/>
      <point x="376" y="150"/>
      <point x="357" y="150" type="curve" smooth="yes"/>
    </contour>
  </outline>
</glyph>
<glyph name="R" format="1">
  <advance width="737"/>
  <unicode hex="0052"/>
  <outline>
    <contour>
      <point x="25" y="568" type="line"/>
      <point x="81" y="568" type="line"/>
      <point x="81" y="132" type="line"/>
      <point x="25" y="132" type="line"/>
      <point x="25" y="0" type="line"/>
      <point x="348" y="0" type="line"/>
      <point x="348" y="132" type="line"/>
      <point x="287" y="132" type="line"/>
      <point x="287" y="287" type="line"/>
      <point x="376" y="287"/>
      <point x="387" y="265"/>
      <point x="387" y="174" type="curve" smooth="yes"/>
      <point x="387" y="57"/>
      <point x="450" y="-12"/>
      <point x="581" y="-12" type="curve" smooth="yes"/>
      <point x="692" y="-12"/>
      <point x="727" y="65"/>
      <point x="727" y="148" type="curve" smooth="yes"/>
      <point x="727" y="203" type="line"/>
      <point x="660" y="203" type="line"/>
      <point x="660" y="170" type="line" smooth="yes"/>
      <point x="660" y="150"/>
      <point x="652" y="138"/>
      <point x="637" y="138" type="curve" smooth="yes"/>
      <point x="619" y="138"/>
      <point x="613" y="163"/>
      <point x="613" y="206" type="curve" smooth="yes"/>
      <point x="613" y="278"/>
      <point x="551" y="338"/>
      <point x="482" y="348" type="curve"/>
      <point x="565" y="360"/>
      <point x="627" y="415"/>
      <point x="627" y="493" type="curve" smooth="yes"/>
      <point x="627" y="607"/>
      <point x="582" y="699"/>
      <point x="350" y="699" type="curve" smooth="yes"/>
      <point x="25" y="699" type="line"/>
    </contour>
    <contour>
      <point x="337" y="569" type="line" smooth="yes"/>
      <point x="395" y="569"/>
      <point x="428" y="539"/>
      <point x="428" y="480" type="curve" smooth="yes"/>
      <point x="428" y="427"/>
      <point x="390" y="399"/>
      <point x="332" y="399" type="curve" smooth="yes"/>
      <point x="287" y="399" type="line"/>
      <point x="287" y="569" type="line"/>
    </contour>
  </outline>
</glyph>
<glyph name="S" format="1">
  <advance width="710"/>
  <unicode hex="0053"/>
  <outline>
    <contour>
      <point x="200" y="0" type="line"/>
      <point x="211" y="77" type="line"/>
      <point x="249" y="32"/>
      <point x="319" y="-15"/>
      <point x="420" y="-15" type="curve" smooth="yes"/>
      <point x="539" y="-15"/>
      <point x="685" y="41"/>
      <point x="685" y="197" type="curve" smooth="yes"/>
      <point x="685" y="432"/>
      <point x="289" y="408"/>
      <point x="289" y="511" type="curve" smooth="yes"/>
      <point x="289" y="546"/>
      <point x="329" y="564"/>
      <point x="358" y="564" type="curve" smooth="yes"/>
      <point x="428" y="564"/>
      <point x="486" y="522"/>
      <point x="486" y="448" type="curve"/>
      <point x="667" y="448" type="line"/>
      <point x="667" y="699" type="line"/>
      <point x="495" y="699" type="line"/>
      <point x="485" y="615" type="line"/>
      <point x="445" y="690"/>
      <point x="360" y="717"/>
      <point x="276" y="717" type="curve" smooth="yes"/>
      <point x="178" y="717"/>
      <point x="38" y="650"/>
      <point x="38" y="502" type="curve" smooth="yes"/>
      <point x="38" y="247"/>
      <point x="422" y="280"/>
      <point x="422" y="202" type="curve" smooth="yes"/>
      <point x="422" y="160"/>
      <point x="372" y="152"/>
      <point x="337" y="152" type="curve"/>
      <point x="295" y="154"/>
      <point x="211" y="168"/>
      <point x="211" y="252" type="curve"/>
      <point x="25" y="252" type="line"/>
      <point x="25" y="0" type="line"/>
    </contour>
  </outline>
</glyph>
<glyph name="T" format="1">
  <advance width="701"/>
  <unicode hex="0054"/>
  <outline>
    <contour>
      <point x="15" y="699" type="line"/>
      <point x="15" y="439" type="line"/>
      <point x="162" y="439" type="line"/>
      <point x="162" y="567" type="line"/>
      <point x="248" y="567" type="line"/>
      <point x="248" y="133" type="line"/>
      <point x="166" y="133" type="line"/>
      <point x="166" y="0" type="line"/>
      <point x="538" y="0" type="line"/>
      <point x="538" y="133" type="line"/>
      <point x="455" y="133" type="line"/>
      <point x="455" y="567" type="line"/>
      <point x="539" y="567" type="line"/>
      <point x="539" y="439" type="line"/>
      <point x="686" y="439" type="line"/>
      <point x="686" y="699" type="line"/>
    </contour>
  </outline>
</glyph>
<glyph name="U" format="1">
  <advance width="737"/>
  <unicode hex="0055"/>
  <outline>
    <contour>
      <point x="15" y="569" type="line"/>
      <point x="71" y="569" type="line"/>
      <point x="71" y="325" type="line" smooth="yes"/>
      <point x="71" y="88"/>
      <point x="181" y="-17"/>
      <point x="379" y="-17" type="curve" smooth="yes"/>
      <point x="577" y="-17"/>
      <point x="668" y="88"/>
      <point x="668" y="325" type="curve" smooth="yes"/>
      <point x="668" y="570" type="line"/>
      <point x="722" y="570" type="line"/>
      <point x="722" y="699" type="line"/>
      <point x="426" y="699" type="line"/>
      <point x="426" y="567" type="line"/>
      <point x="480" y="567" type="line"/>
      <point x="480" y="355" type="line" smooth="yes"/>
      <point x="480" y="191"/>
      <point x="441" y="159"/>
      <point x="379" y="159" type="curve" smooth="yes"/>
      <point x="317" y="159"/>
      <point x="279" y="191"/>
      <point x="279" y="355" type="curve" smooth="yes"/>
      <point x="279" y="570" type="line"/>
      <point x="333" y="570" type="line"/>
      <point x="333" y="699" type="line"/>
      <point x="15" y="699" type="line"/>
    </contour>
    <contour>
      <point x="372" y="0" type="move" name="bottom"/>
    </contour>
    <contour>
      <point x="457" y="10" type="move" name="ogonek"/>
    </contour>
    <contour>
      <point x="379" y="699" type="move" name="top"/>
    </contour>
    <contour>
      <point x="717" y="699" type="move" name="topright"/>
    </contour>
  </outline>
</glyph>
<glyph name="V" format="1">
  <advance width="773"/>
  <unicode hex="0056"/>
  <outline>
    <contour>
      <point x="420" y="224" type="line"/>
      <point x="418" y="252"/>
      <point x="405" y="296"/>
      <point x="389" y="345" type="curve"/>
      <point x="304" y="569" type="line"/>
      <point x="358" y="569" type="line"/>
      <point x="359" y="699" type="line"/>
      <point x="-10" y="699" type="line"/>
      <point x="-10" y="569" type="line"/>
      <point x="45" y="569" type="line"/>
      <point x="310" y="0" type="line"/>
      <point x="494" y="0" type="line"/>
      <point x="734" y="569" type="line"/>
      <point x="783" y="569" type="line"/>
      <point x="783" y="699" type="line"/>
      <point x="499" y="699" type="line"/>
      <point x="500" y="569" type="line"/>
      <point x="552" y="569" type="line"/>
      <point x="461" y="351" type="line" smooth="yes"/>
      <point x="441" y="301"/>
      <point x="427" y="252"/>
      <point x="425" y="224" type="curve"/>
    </contour>
    <contour>
      <point x="387" y="0" type="move" name="bottom"/>
    </contour>
    <contour>
      <point x="387" y="699" type="move" name="top"/>
    </contour>
  </outline>
</glyph>
<glyph name="W" format="1">
  <advance width="1015"/>
  <unicode hex="0057"/>
  <outline>
    <contour>
      <point x="320" y="226" type="line"/>
      <point x="316" y="256"/>
      <point x="299" y="375"/>
      <point x="288" y="423" type="curve"/>
      <point x="262" y="569" type="line"/>
      <point x="320" y="569" type="line"/>
      <point x="320" y="699" type="line"/>
      <point x="-10" y="699" type="line"/>
      <point x="-10" y="569" type="line"/>
      <point x="46" y="569" type="line"/>
      <point x="178" y="0" type="line"/>
      <point x="410" y="0" type="line"/>
      <point x="471" y="240" type="line" smooth="yes"/>
      <point x="478" y="269"/>
      <point x="491" y="332"/>
      <point x="495" y="362" type="curve"/>
      <point x="499" y="362" type="line"/>
      <point x="504" y="331"/>
      <point x="515" y="272"/>
      <point x="524" y="238" type="curve" smooth="yes"/>
      <point x="584" y="0" type="line"/>
      <point x="821" y="0" type="line"/>
      <point x="970" y="569" type="line"/>
      <point x="1025" y="569" type="line"/>
      <point x="1025" y="699" type="line"/>
      <point x="739" y="699" type="line"/>
      <point x="739" y="569" type="line"/>
      <point x="794" y="569" type="line"/>
      <point x="760" y="417" type="line" smooth="yes"/>
      <point x="751" y="375"/>
      <point x="734" y="271"/>
      <point x="730" y="226" type="curve"/>
      <point x="725" y="226" type="line"/>
      <point x="720" y="276"/>
      <point x="709" y="358"/>
      <point x="695" y="423" type="curve" smooth="yes"/>
      <point x="632" y="699" type="line"/>
      <point x="424" y="699" type="line"/>
      <point x="374" y="474" type="line" smooth="yes"/>
      <point x="354" y="379"/>
      <point x="327" y="254"/>
      <point x="325" y="226" type="curve"/>
    </contour>
  </outline>
</glyph>
<glyph name="X" format="1">
  <advance width="835"/>
  <unicode hex="0058"/>
  <outline>
    <contour>
      <point x="357" y="129" type="line"/>
      <point x="268" y="129" type="line"/>
      <point x="371" y="260" type="line"/>
      <point x="392" y="232" type="line"/>
      <point x="468" y="130" type="line"/>
      <point x="411" y="130" type="line"/>
      <point x="411" y="0" type="line"/>
      <point x="810" y="0" type="line"/>
      <point x="810" y="130" type="line"/>
      <point x="752" y="130" type="line"/>
      <point x="572" y="376" type="line"/>
      <point x="723" y="569" type="line"/>
      <point x="808" y="569" type="line"/>
      <point x="808" y="699" type="line"/>
      <point x="476" y="699" type="line"/>
      <point x="476" y="569" type="line"/>
      <point x="564" y="569" type="line"/>
      <point x="462" y="436" type="line"/>
      <point x="364" y="569" type="line"/>
      <point x="422" y="569" type="line"/>
      <point x="422" y="699" type="line"/>
      <point x="26" y="699" type="line"/>
      <point x="26" y="569" type="line"/>
      <point x="78" y="569" type="line"/>
      <point x="259" y="320" type="line"/>
      <point x="112" y="129" type="line"/>
      <point x="25" y="129" type="line"/>
      <point x="25" y="0" type="line"/>
      <point x="357" y="0" type="line"/>
    </contour>
  </outline>
</glyph>
<glyph name="Y" format="1">
  <advance width="669"/>
  <unicode hex="0059"/>
  <outline>
    <contour>
      <point x="369" y="384" type="line"/>
      <point x="365" y="401"/>
      <point x="344" y="446"/>
      <point x="338" y="465" type="curve"/>
      <point x="280" y="571" type="line"/>
      <point x="332" y="571" type="line"/>
      <point x="332" y="699" type="line"/>
      <point x="-10" y="699" type="line"/>
      <point x="-10" y="571" type="line"/>
      <point x="39" y="571" type="line"/>
      <point x="233" y="248" type="line"/>
      <point x="233" y="130" type="line"/>
      <point x="176" y="130" type="line"/>
      <point x="176" y="0" type="line"/>
      <point x="496" y="0" type="line"/>
      <point x="496" y="130" type="line"/>
      <point x="440" y="130" type="line"/>
      <point x="440" y="246" type="line"/>
      <point x="625" y="571" type="line"/>
      <point x="679" y="571" type="line"/>
      <point x="679" y="699" type="line"/>
      <point x="410" y="699" type="line"/>
      <point x="410" y="571" type="line"/>
      <point x="465" y="571" type="line"/>
      <point x="410" y="470" type="line"/>
      <point x="399" y="446"/>
      <point x="377" y="404"/>
      <point x="373" y="384" type="curve"/>
    </contour>
  </outline>
</glyph>
<glyph name="Z" format="1">
  <advance width="714"/>
  <unicode hex="005A"/>
  <outline>
    <contour>
      <point x="201" y="436" type="line"/>
      <point x="200" y="566" type="line"/>
      <point x="389" y="567" type="line"/>
      <point x="25" y="130" type="line"/>
      <point x="25" y="0" type="line"/>
      <point x="686" y="0" type="line"/>
      <point x="686" y="260" type="line"/>
      <point x="509" y="260" type="line"/>
      <point x="508" y="132" type="line"/>
      <point x="323" y="132" type="line"/>
      <point x="689" y="566" type="line"/>
      <point x="687" y="699" type="line"/>
      <point x="31" y="699" type="line"/>
      <point x="31" y="436" type="line"/>
    </contour>
  </outline>
</glyph>
<glyph name="bracketleft" format="1">
  <advance width="312"/>
  <unicode hex="005B"/>
  <outline>
    <contour>
      <point x="121" y="845" type="line"/>
      <point x="121" y="719" type="line"/>
      <point x="312" y="719" type="line"/>
      <point x="312" y="845" type="line"/>
    </contour>
    <contour>
      <point x="91" y="-75" type="line"/>
      <point x="91" y="-201" type="line"/>
      <point x="312" y="-201" type="line"/>
      <point x="312" y="-75" type="line"/>
    </contour>
    <contour>
      <point x="30" y="845" type="line"/>
      <point x="30" y="-201" type="line"/>
      <point x="153" y="-201" type="line"/>
      <point x="153" y="845" type="line"/>
    </contour>
  </outline>
</glyph>
<glyph name="backslash" format="1">
  <advance width="524"/>
  <unicode hex="005C"/>
  <outline>
    <contour>
      <point x="519" y="-78" type="line"/>
      <point x="147" y="752" type="line"/>
      <point x="5" y="752" type="line"/>
      <point x="377" y="-80" type="line"/>
    </contour>
  </outline>
</glyph>
<glyph name="bracketright" format="1">
  <advance width="647"/>
  <unicode hex="005D"/>
  <outline>
    <contour>
      <point x="331" y="0" type="line"/>
      <point x="331" y="131" type="line"/>
      <point x="260" y="131" type="line"/>
      <point x="260" y="215" type="line"/>
      <point x="295" y="239" type="line"/>
      <point x="463" y="0" type="line"/>
      <point x="625" y="0" type="line"/>
      <point x="625" y="131" type="line"/>
      <point x="584" y="131" type="line"/>
      <point x="445" y="330" type="line"/>
      <point x="508" y="367" type="line"/>
      <point x="585" y="367" type="line"/>
      <point x="585" y="500" type="line"/>
      <point x="305" y="500" type="line"/>
      <point x="305" y="367" type="line"/>
      <point x="377" y="367" type="line"/>
      <point x="261" y="298" type="line"/>
      <point x="261" y="750" type="line"/>
      <point x="30" y="750" type="line"/>
      <point x="30" y="619" type="line"/>
      <point x="71" y="619" type="line"/>
      <point x="71" y="130" type="line"/>
      <point x="30" y="130" type="line"/>
      <point x="30" y="0" type="line"/>
    </contour>
  </outline>
</glyph>
<glyph name="asciicircum" format="1">
  <advance width="597"/>
  <unicode hex="005E"/>
  <outline>
    <contour>
      <point x="227" y="700" type="line"/>
      <point x="10" y="303" type="line"/>
      <point x="188" y="303" type="line"/>
      <point x="300" y="527" type="line"/>
      <point x="409" y="303" type="line"/>
      <point x="587" y="303" type="line"/>
      <point x="372" y="700" type="line"/>
    </contour>
  </outline>
</glyph>
<glyph name="underscore" format="1">
  <advance width="699"/>
  <unicode hex="005F"/>
  <outline>
    <contour>
      <point x="25" y="-1" type="line"/>
      <point x="674" y="-1" type="line"/>
      <point x="674" y="82" type="line"/>
      <point x="25" y="82" type="line"/>
    </contour>
  </outline>
</glyph>
<glyph name="a" format="1">
  <advance width="600"/>
  <unicode hex="0061"/>
  <outline>
    <contour>
      <point x="78" y="342" type="line"/>
      <point x="116" y="363"/>
      <point x="168" y="388"/>
      <point x="227" y="388" type="curve" smooth="yes"/>
      <point x="281" y="388"/>
      <point x="322" y="377"/>
      <point x="322" y="332" type="curve" smooth="yes"/>
      <point x="322" y="297" type="line"/>
      <point x="317" y="303"/>
      <point x="282" y="332"/>
      <point x="223" y="332" type="curve" smooth="yes"/>
      <point x="110" y="332"/>
      <point x="15" y="261"/>
      <point x="15" y="148" type="curve" smooth="yes"/>
      <point x="15" y="32"/>
      <point x="117" y="-19"/>
      <point x="212" y="-19" type="curve" smooth="yes"/>
      <point x="248" y="-19"/>
      <point x="310" y="-6"/>
      <point x="347" y="45" type="curve"/>
      <point x="371" y="0" type="line"/>
      <point x="585" y="0" type="line"/>
      <point x="585" y="128" type="line"/>
      <point x="525" y="128" type="line"/>
      <point x="525" y="323" type="line" smooth="yes"/>
      <point x="525" y="484"/>
      <point x="374" y="529"/>
      <point x="254" y="529" type="curve" smooth="yes"/>
      <point x="162" y="529"/>
      <point x="76" y="482"/>
      <point x="36" y="458" type="curve"/>
    </contour>
    <contour>
      <point x="228" y="111"/>
      <point x="205" y="130"/>
      <point x="205" y="158" type="curve" smooth="yes"/>
      <point x="205" y="189"/>
      <point x="223" y="211"/>
      <point x="263" y="211" type="curve" smooth="yes"/>
      <point x="305" y="211"/>
      <point x="319" y="187"/>
      <point x="322" y="182" type="curve"/>
      <point x="322" y="144" type="line"/>
      <point x="313" y="129"/>
      <point x="288" y="111"/>
      <point x="258" y="111" type="curve" smooth="yes"/>
    </contour>
  </outline>
</glyph>
<glyph name="b" format="1">
  <advance width="656"/>
  <unicode hex="0062"/>
  <outline>
    <contour>
      <point x="256" y="0" type="line"/>
      <point x="271" y="34" type="line"/>
      <point x="299" y="10"/>
      <point x="327" y="-11"/>
      <point x="403" y="-11" type="curve" smooth="yes"/>
      <point x="544" y="-11"/>
      <point x="631" y="92"/>
      <point x="634" y="246" type="curve" smooth="yes"/>
      <point x="637" y="380"/>
      <point x="556" y="508"/>
      <point x="404" y="508" type="curve" smooth="yes"/>
      <point x="355" y="508"/>
      <point x="295" y="487"/>
      <point x="273" y="461" type="curve"/>
      <point x="273" y="750" type="line"/>
      <point x="31" y="750" type="line"/>
      <point x="31" y="619" type="line"/>
      <point x="73" y="619" type="line"/>
      <point x="73" y="130" type="line"/>
      <point x="31" y="130" type="line"/>
      <point x="31" y="0" type="line"/>
    </contour>
    <contour>
      <point x="414" y="168"/>
      <point x="385" y="119"/>
      <point x="343" y="119" type="curve" smooth="yes"/>
      <point x="305" y="119"/>
      <point x="271" y="171"/>
      <point x="271" y="239" type="curve"/>
      <point x="267" y="318"/>
      <point x="303" y="367"/>
      <point x="342" y="367" type="curve" smooth="yes"/>
      <point x="386" y="367"/>
      <point x="414" y="304"/>
      <point x="414" y="244" type="curve" smooth="yes"/>
    </contour>
  </outline>
</glyph>
<glyph name="c" format="1">
  <advance width="531"/>
  <unicode hex="0063"/>
  <outline>
    <contour>
      <point x="507" y="274" type="line"/>
      <point x="507" y="500" type="line"/>
      <point x="389" y="500" type="line"/>
      <point x="372" y="452" type="line"/>
      <point x="355" y="472"/>
      <point x="315" y="509"/>
      <point x="247" y="509" type="curve" smooth="yes"/>
      <point x="119" y="509"/>
      <point x="1" y="430"/>
      <point x="1" y="253" type="curve" smooth="yes"/>
      <point x="1" y="75"/>
      <point x="129" y="-14"/>
      <point x="276" y="-14" type="curve" smooth="yes"/>
      <point x="384" y="-14"/>
      <point x="474" y="37"/>
      <point x="521" y="88" type="curve"/>
      <point x="433" y="190" type="line"/>
      <point x="400" y="154"/>
      <point x="365" y="132"/>
      <point x="312" y="133" type="curve" smooth="yes"/>
      <point x="248" y="134"/>
      <point x="209" y="186"/>
      <point x="209" y="251" type="curve" smooth="yes"/>
      <point x="209" y="316"/>
      <point x="238" y="379"/>
      <point x="297" y="379" type="curve" smooth="yes"/>
      <point x="343" y="379"/>
      <point x="358" y="322"/>
      <point x="360" y="274" type="curve"/>
    </contour>
  </outline>
</glyph>
<glyph name="d" format="1">
  <advance width="634"/>
  <unicode hex="0064"/>
  <outline>
    <contour>
      <point x="368" y="472" type="line"/>
      <point x="349" y="484"/>
      <point x="313" y="510"/>
      <point x="242" y="510" type="curve" smooth="yes"/>
      <point x="119" y="510"/>
      <point x="10" y="411"/>
      <point x="10" y="255" type="curve" smooth="yes"/>
      <point x="10" y="116"/>
      <point x="101" y="-9"/>
      <point x="242" y="-9" type="curve" smooth="yes"/>
      <point x="311" y="-9"/>
      <point x="355" y="25"/>
      <point x="368" y="37" type="curve"/>
      <point x="385" y="0" type="line"/>
      <point x="619" y="0" type="line"/>
      <point x="619" y="130" type="line"/>
      <point x="571" y="130" type="line"/>
      <point x="571" y="750" type="line"/>
      <point x="322" y="750" type="line"/>
      <point x="322" y="620" type="line"/>
      <point x="368" y="620" type="line"/>
    </contour>
    <contour>
      <point x="225" y="331"/>
      <point x="254" y="380"/>
      <point x="296" y="380" type="curve" smooth="yes"/>
      <point x="334" y="380"/>
      <point x="368" y="328"/>
      <point x="368" y="260" type="curve"/>
      <point x="372" y="181"/>
      <point x="336" y="132"/>
      <point x="297" y="132" type="curve" smooth="yes"/>
      <point x="253" y="132"/>
      <point x="225" y="195"/>
      <point x="225" y="255" type="curve" smooth="yes"/>
    </contour>
  </outline>
</glyph>
<glyph name="e" format="1">
  <advance width="542"/>
  <unicode hex="0065"/>
  <outline>
    <contour>
      <point x="443" y="166" type="line"/>
      <point x="389" y="121"/>
      <point x="337" y="118"/>
      <point x="303" y="118" type="curve" smooth="yes"/>
      <point x="219" y="118"/>
      <point x="206" y="173"/>
      <point x="200" y="200" type="curve"/>
      <point x="515" y="200" type="line"/>
      <point x="536" y="257"/>
      <point x="525" y="334"/>
      <point x="513" y="369" type="curve" smooth="yes"/>
      <point x="484" y="453"/>
      <point x="393" y="514"/>
      <point x="274" y="514" type="curve" smooth="yes"/>
      <point x="123" y="514"/>
      <point x="5" y="417"/>
      <point x="5" y="253" type="curve" smooth="yes"/>
      <point x="5" y="61"/>
      <point x="145" y="-18"/>
      <point x="269" y="-18" type="curve" smooth="yes"/>
      <point x="373" y="-18"/>
      <point x="453" y="5"/>
      <point x="527" y="69" type="curve"/>
    </contour>
    <contour>
      <point x="344" y="379"/>
      <point x="353" y="337"/>
      <point x="354" y="299" type="curve"/>
      <point x="203" y="299" type="line"/>
      <point x="205" y="324"/>
      <point x="219" y="379"/>
      <point x="280" y="379" type="curve" smooth="yes"/>
    </contour>
  </outline>
</glyph>
<glyph name="f" format="1">
  <advance width="386"/>
  <unicode hex="0066"/>
  <outline>
    <contour>
      <point x="411" y="743" type="line"/>
      <point x="385" y="756"/>
      <point x="316" y="768"/>
      <point x="264" y="768" type="curve" smooth="yes"/>
      <point x="84" y="768"/>
      <point x="66" y="642"/>
      <point x="66" y="585" type="curve" smooth="yes"/>
      <point x="66" y="500" type="line"/>
      <point x="25" y="500" type="line"/>
      <point x="25" y="370" type="line"/>
      <point x="66" y="370" type="line"/>
      <point x="66" y="131" type="line"/>
      <point x="26" y="131" type="line"/>
      <point x="26" y="0" type="line"/>
      <point x="324" y="0" type="line"/>
      <point x="324" y="131" type="line"/>
      <point x="264" y="131" type="line"/>
      <point x="264" y="370" type="line"/>
      <point x="355" y="370" type="line"/>
      <point x="355" y="500" type="line"/>
      <point x="264" y="500" type="line"/>
      <point x="264" y="585" type="line" smooth="yes"/>
      <point x="264" y="621"/>
      <point x="274" y="638"/>
      <point x="296" y="638" type="curve" smooth="yes"/>
      <point x="323" y="638"/>
      <point x="340" y="633"/>
      <point x="351" y="628" type="curve"/>
    </contour>
  </outline>
</glyph>
<glyph name="g" format="1">
  <advance width="640"/>
  <unicode hex="0067"/>
  <outline>
    <contour>
      <point x="24" y="-117" type="line"/>
      <point x="62" y="-152"/>
      <point x="143" y="-204"/>
      <point x="253" y="-205" type="curve" smooth="yes"/>
      <point x="463" y="-204"/>
      <point x="565" y="-96"/>
      <point x="565" y="70" type="curve" smooth="yes"/>
      <point x="565" y="369" type="line"/>
      <point x="625" y="369" type="line"/>
      <point x="625" y="500" type="line"/>
      <point x="387" y="500" type="line"/>
      <point x="367" y="469" type="line"/>
      <point x="347" y="489"/>
      <point x="305" y="510"/>
      <point x="261" y="510" type="curve" smooth="yes"/>
      <point x="96" y="510"/>
      <point x="10" y="408"/>
      <point x="10" y="253" type="curve" smooth="yes"/>
      <point x="10" y="127"/>
      <point x="78" y="3"/>
      <point x="250" y="3" type="curve" smooth="yes"/>
      <point x="314" y="3"/>
      <point x="353" y="40"/>
      <point x="367" y="58" type="curve"/>
      <point x="367" y="24" type="line" smooth="yes"/>
      <point x="367" y="-18"/>
      <point x="341" y="-70"/>
      <point x="251" y="-70" type="curve" smooth="yes"/>
      <point x="175" y="-70"/>
      <point x="100" y="-26"/>
      <point x="77" y="-6" type="curve"/>
    </contour>
    <contour>
      <point x="223" y="331"/>
      <point x="252" y="380"/>
      <point x="294" y="380" type="curve" smooth="yes"/>
      <point x="332" y="380"/>
      <point x="366" y="328"/>
      <point x="366" y="260" type="curve"/>
      <point x="370" y="181"/>
      <point x="334" y="132"/>
      <point x="295" y="132" type="curve" smooth="yes"/>
      <point x="251" y="132"/>
      <point x="223" y="195"/>
      <point x="223" y="255" type="curve" smooth="yes"/>
    </contour>
  </outline>
</glyph>
<glyph name="h" format="1">
  <advance width="661"/>
  <unicode hex="0068"/>
  <outline>
    <contour>
      <point x="339" y="131" type="line"/>
      <point x="267" y="131" type="line"/>
      <point x="267" y="272" type="line" smooth="yes"/>
      <point x="267" y="315"/>
      <point x="279" y="365"/>
      <point x="330" y="365" type="curve" smooth="yes"/>
      <point x="389" y="365"/>
      <point x="389" y="306"/>
      <point x="389" y="272" type="curve" smooth="yes"/>
      <point x="389" y="0" type="line"/>
      <point x="646" y="0" type="line"/>
      <point x="646" y="131" type="line"/>
      <point x="599" y="131" type="line"/>
      <point x="599" y="298" type="line" smooth="yes"/>
      <point x="599" y="403"/>
      <point x="579" y="518"/>
      <point x="424" y="518" type="curve" smooth="yes"/>
      <point x="351" y="518"/>
      <point x="278" y="456"/>
      <point x="267" y="438" type="curve"/>
      <point x="267" y="750" type="line"/>
      <point x="25" y="750" type="line"/>
      <point x="25" y="620" type="line"/>
      <point x="67" y="620" type="line"/>
      <point x="67" y="131" type="line"/>
      <point x="25" y="131" type="line"/>
      <point x="25" y="0" type="line"/>
      <point x="339" y="0" type="line"/>
    </contour>
  </outline>
</glyph>
<glyph name="i" format="1">
  <advance width="330"/>
  <unicode hex="0069"/>
  <outline>
    <contour>
      <point x="305" y="131" type="line"/>
      <point x="257" y="131" type="line"/>
      <point x="257" y="500" type="line"/>
      <point x="25" y="500" type="line"/>
      <point x="25" y="370" type="line"/>
      <point x="67" y="370" type="line"/>
      <point x="67" y="131" type="line"/>
      <point x="25" y="131" type="line"/>
      <point x="25" y="0" type="line"/>
      <point x="305" y="0" type="line"/>
    </contour>
    <contour>
      <point x="53" y="598"/>
      <point x="98" y="545"/>
      <point x="161" y="545" type="curve" smooth="yes"/>
      <point x="232" y="545"/>
      <point x="271" y="591"/>
      <point x="271" y="646" type="curve" smooth="yes"/>
      <point x="271" y="692"/>
      <point x="230" y="748"/>
      <point x="161" y="748" type="curve" smooth="yes"/>
      <point x="91" y="748"/>
      <point x="53" y="692"/>
      <point x="53" y="646" type="curve" smooth="yes"/>
    </contour>
  </outline>
</glyph>
<glyph name="j" format="1">
  <advance width="360"/>
  <unicode hex="006A"/>
  <outline>
    <contour>
      <point x="128" y="70" type="line" smooth="yes"/>
      <point x="128" y="22"/>
      <point x="130" y="-75"/>
      <point x="14" y="-75" type="curve"/>
      <point x="14" y="-209" type="line"/>
      <point x="280" y="-209"/>
      <point x="318" y="-54"/>
      <point x="318" y="70" type="curve" smooth="yes"/>
      <point x="318" y="500" type="line"/>
      <point x="86" y="500" type="line"/>
      <point x="86" y="370" type="line"/>
      <point x="128" y="370" type="line"/>
    </contour>
    <contour>
      <point x="114" y="598"/>
      <point x="159" y="545"/>
      <point x="222" y="545" type="curve" smooth="yes"/>
      <point x="293" y="545"/>
      <point x="332" y="591"/>
      <point x="332" y="646" type="curve" smooth="yes"/>
      <point x="332" y="692"/>
      <point x="291" y="748"/>
      <point x="222" y="748" type="curve" smooth="yes"/>
      <point x="152" y="748"/>
      <point x="114" y="692"/>
      <point x="114" y="646" type="curve" smooth="yes"/>
    </contour>
  </outline>
</glyph>
<glyph name="k" format="1">
  <advance width="654"/>
  <unicode hex="006B"/>
  <outline>
    <contour>
      <point x="305" y="0" type="line"/>
      <point x="305" y="131" type="line"/>
      <point x="268" y="131" type="line"/>
      <point x="268" y="215" type="line"/>
      <point x="303" y="239" type="line"/>
      <point x="379" y="131" type="line"/>
      <point x="337" y="131" type="line"/>
      <point x="337" y="0" type="line"/>
      <point x="633" y="0" type="line"/>
      <point x="633" y="131" type="line"/>
      <point x="583" y="131" type="line"/>
      <point x="448" y="324" type="line"/>
      <point x="516" y="367" type="line"/>
      <point x="593" y="367" type="line"/>
      <point x="593" y="499" type="line"/>
      <point x="313" y="499" type="line"/>
      <point x="313" y="367" type="line"/>
      <point x="385" y="367" type="line"/>
      <point x="269" y="298" type="line"/>
      <point x="269" y="750" type="line"/>
      <point x="38" y="750" type="line"/>
      <point x="38" y="619" type="line"/>
      <point x="79" y="619" type="line"/>
      <point x="79" y="130" type="line"/>
      <point x="38" y="130" type="line"/>
      <point x="38" y="0" type="line"/>
    </contour>
    <contour>
      <point x="327" y="0" type="move" name="bottom"/>
    </contour>
    <contour>
      <point x="327" y="750" type="move" name="top"/>
    </contour>
  </outline>
</glyph>
<glyph name="l" format="1">
  <advance width="332"/>
  <unicode hex="006C"/>
  <outline>
    <contour>
      <point x="317" y="131" type="line"/>
      <point x="258" y="131" type="line"/>
      <point x="258" y="750" type="line"/>
      <point x="26" y="750" type="line"/>
      <point x="26" y="621" type="line"/>
      <point x="68" y="621" type="line"/>
      <point x="68" y="131" type="line"/>
      <point x="25" y="131" type="line"/>
      <point x="25" y="0" type="line"/>
      <point x="317" y="0" type="line"/>
    </contour>
    <contour>
      <point x="166" y="0" type="move" name="bottom"/>
    </contour>
    <contour>
      <point x="166" y="375" type="move" name="center"/>
    </contour>
    <contour>
      <point x="166" y="750" type="move" name="top"/>
    </contour>
    <contour>
      <point x="312" y="750" type="move" name="topright"/>
    </contour>
  </outline>
</glyph>
<glyph name="m" format="1">
  <advance width="908"/>
  <unicode hex="006D"/>
  <outline>
    <contour>
      <point x="322" y="131" type="line"/>
      <point x="262" y="131" type="line"/>
      <point x="262" y="309" type="line" smooth="yes"/>
      <point x="262" y="350"/>
      <point x="275" y="369"/>
      <point x="307" y="369" type="curve" smooth="yes"/>
      <point x="347" y="369"/>
      <point x="349" y="336"/>
      <point x="349" y="255" type="curve" smooth="yes"/>
      <point x="349" y="0" type="line"/>
      <point x="608" y="0" type="line"/>
      <point x="608" y="134" type="line"/>
      <point x="548" y="134" type="line"/>
      <point x="548" y="296" type="line" smooth="yes"/>
      <point x="548" y="339"/>
      <point x="558" y="369"/>
      <point x="601" y="369" type="curve" smooth="yes"/>
      <point x="648" y="369"/>
      <point x="639" y="293"/>
      <point x="639" y="245" type="curve" smooth="yes"/>
      <point x="639" y="0" type="line"/>
      <point x="893" y="0" type="line"/>
      <point x="893" y="135" type="line"/>
      <point x="844" y="135" type="line"/>
      <point x="844" y="273" type="line" smooth="yes"/>
      <point x="844" y="395"/>
      <point x="819" y="513"/>
      <point x="657" y="513" type="curve" smooth="yes"/>
      <point x="588" y="513"/>
      <point x="541" y="476"/>
      <point x="510" y="441" type="curve"/>
      <point x="494" y="465"/>
      <point x="462" y="513"/>
      <point x="361" y="513" type="curve" smooth="yes"/>
      <point x="298" y="513"/>
      <point x="252" y="459"/>
      <point x="236" y="440" type="curve"/>
      <point x="214" y="499" type="line"/>
      <point x="25" y="499" type="line"/>
      <point x="25" y="367" type="line"/>
      <point x="67" y="367" type="line"/>
      <point x="67" y="131" type="line"/>
      <point x="25" y="131" type="line"/>
      <point x="25" y="0" type="line"/>
      <point x="322" y="0" type="line"/>
    </contour>
  </outline>
</glyph>
<glyph name="n" format="1">
  <advance width="647"/>
  <unicode hex="006E"/>
  <outline>
    <contour>
      <point x="333" y="131" type="line"/>
      <point x="261" y="131" type="line"/>
      <point x="261" y="273" type="line" smooth="yes"/>
      <point x="261" y="316"/>
      <point x="273" y="366"/>
      <point x="324" y="366" type="curve" smooth="yes"/>
      <point x="383" y="366"/>
      <point x="380" y="307"/>
      <point x="380" y="273" type="curve" smooth="yes"/>
      <point x="380" y="0" type="line"/>
      <point x="632" y="0" type="line"/>
      <point x="632" y="131" type="line"/>
      <point x="585" y="131" type="line"/>
      <point x="585" y="298" type="line" smooth="yes"/>
      <point x="585" y="403"/>
      <point x="559" y="518"/>
      <point x="404" y="518" type="curve" smooth="yes"/>
      <point x="341" y="518"/>
      <point x="295" y="485"/>
      <point x="261" y="438" type="curve"/>
      <point x="238" y="500" type="line"/>
      <point x="25" y="500" type="line"/>
      <point x="25" y="370" type="line"/>
      <point x="67" y="370" type="line"/>
      <point x="67" y="131" type="line"/>
      <point x="25" y="131" type="line"/>
      <point x="25" y="0" type="line"/>
      <point x="333" y="0" type="line"/>
    </contour>
  </outline>
</glyph>
<glyph name="o" format="1">
  <advance width="574"/>
  <unicode hex="006F"/>
  <outline>
    <contour>
      <point x="442" y="-13"/>
      <point x="565" y="82"/>
      <point x="563" y="248" type="curve" smooth="yes"/>
      <point x="560" y="415"/>
      <point x="443" y="510"/>
      <point x="285" y="512" type="curve" smooth="yes"/>
      <point x="147" y="512"/>
      <point x="12" y="419"/>
      <point x="11" y="252" type="curve" smooth="yes"/>
      <point x="9" y="75"/>
      <point x="147" y="-13"/>
      <point x="290" y="-13" type="curve" smooth="yes"/>
    </contour>
    <contour>
      <point x="248" y="115"/>
      <point x="216" y="169"/>
      <point x="216" y="251" type="curve" smooth="yes"/>
      <point x="216" y="324"/>
      <point x="246" y="382"/>
      <point x="285" y="382" type="curve" smooth="yes"/>
      <point x="332" y="381"/>
      <point x="358" y="323"/>
      <point x="358" y="248" type="curve" smooth="yes"/>
      <point x="358" y="173"/>
      <point x="333" y="115"/>
      <point x="290" y="115" type="curve" smooth="yes"/>
    </contour>
    <contour>
      <point x="287" y="0" type="move" name="bottom"/>
    </contour>
    <contour>
      <point x="287" y="250" type="move" name="center"/>
    </contour>
    <contour>
      <point x="517" y="10" type="move" name="ogonek"/>
    </contour>
    <contour>
      <point x="287" y="500" type="move" name="top"/>
    </contour>
    <contour>
      <point x="554" y="500" type="move" name="topright"/>
    </contour>
  </outline>
</glyph>
<glyph name="p" format="1">
  <advance width="638"/>
  <unicode hex="0070"/>
  <outline>
    <contour>
      <point x="413" y="168"/>
      <point x="384" y="119"/>
      <point x="342" y="119" type="curve" smooth="yes"/>
      <point x="304" y="119"/>
      <point x="270" y="171"/>
      <point x="270" y="239" type="curve"/>
      <point x="266" y="318"/>
      <point x="302" y="367"/>
      <point x="341" y="367" type="curve" smooth="yes"/>
      <point x="385" y="367"/>
      <point x="413" y="304"/>
      <point x="413" y="244" type="curve" smooth="yes"/>
    </contour>
    <contour>
      <point x="25" y="-204" type="line"/>
      <point x="324" y="-204" type="line"/>
      <point x="324" y="-73" type="line"/>
      <point x="270" y="-73" type="line"/>
      <point x="270" y="28" type="line"/>
      <point x="277" y="22"/>
      <point x="317" y="-11"/>
      <point x="400" y="-11" type="curve" smooth="yes"/>
      <point x="529" y="-11"/>
      <point x="628" y="87"/>
      <point x="628" y="246" type="curve" smooth="yes"/>
      <point x="628" y="388"/>
      <point x="548" y="508"/>
      <point x="392" y="508" type="curve" smooth="yes"/>
      <point x="332" y="508"/>
      <point x="290" y="479"/>
      <point x="271" y="465" type="curve"/>
      <point x="254" y="500" type="line"/>
      <point x="25" y="500" type="line"/>
      <point x="25" y="367" type="line"/>
      <point x="67" y="367" type="line"/>
      <point x="67" y="-73" type="line"/>
      <point x="25" y="-73" type="line"/>
    </contour>
  </outline>
</glyph>
<glyph name="q" format="1">
  <advance width="660"/>
  <unicode hex="0071"/>
  <outline>
    <contour>
      <point x="383" y="181"/>
      <point x="354" y="132"/>
      <point x="312" y="132" type="curve" smooth="yes"/>
      <point x="274" y="132"/>
      <point x="240" y="184"/>
      <point x="240" y="252" type="curve"/>
      <point x="236" y="331"/>
      <point x="272" y="380"/>
      <point x="311" y="380" type="curve" smooth="yes"/>
      <point x="355" y="380"/>
      <point x="383" y="317"/>
      <point x="383" y="257" type="curve" smooth="yes"/>
    </contour>
    <contour>
      <point x="318" y="-230" type="line"/>
      <point x="635" y="-230" type="line"/>
      <point x="635" y="-96" type="line"/>
      <point x="586" y="-96" type="line"/>
      <point x="586" y="370" type="line"/>
      <point x="635" y="370" type="line"/>
      <point x="635" y="500" type="line"/>
      <point x="402" y="500" type="line"/>
      <point x="383" y="470" type="line"/>
      <point x="373" y="483"/>
      <point x="329" y="510"/>
      <point x="264" y="510" type="curve" smooth="yes"/>
      <point x="131" y="510"/>
      <point x="25" y="426"/>
      <point x="25" y="253" type="curve" smooth="yes"/>
      <point x="25" y="92"/>
      <point x="127" y="-9"/>
      <point x="255" y="-9" type="curve" smooth="yes"/>
      <point x="314" y="-9"/>
      <point x="360" y="14"/>
      <point x="383" y="33" type="curve"/>
      <point x="383" y="-99" type="line"/>
      <point x="318" y="-99" type="line"/>
    </contour>
  </outline>
</glyph>
<glyph name="r" format="1">
  <advance width="414"/>
  <unicode hex="0072"/>
  <outline>
    <contour>
      <point x="308" y="131" type="line"/>
      <point x="258" y="131" type="line"/>
      <point x="258" y="234" type="line" smooth="yes"/>
      <point x="258" y="322"/>
      <point x="309" y="345"/>
      <point x="399" y="345" type="curve"/>
      <point x="399" y="518" type="line"/>
      <point x="296" y="518"/>
      <point x="270" y="484"/>
      <point x="244" y="436" type="curve"/>
      <point x="214" y="500" type="line"/>
      <point x="26" y="500" type="line"/>
      <point x="26" y="370" type="line"/>
      <point x="69" y="370" type="line"/>
      <point x="69" y="131" type="line"/>
      <point x="25" y="131" type="line"/>
      <point x="25" y="0" type="line"/>
      <point x="308" y="0" type="line"/>
    </contour>
    <contour>
      <point x="207" y="0" type="move" name="bottom"/>
    </contour>
    <contour>
      <point x="207" y="500" type="move" name="top"/>
    </contour>
  </outline>
</glyph>
<glyph name="s" format="1">
  <advance width="508"/>
  <unicode hex="0073"/>
  <outline>
    <contour>
      <point x="140" y="0" type="line"/>
      <point x="149" y="61" type="line"/>
      <point x="173" y="23"/>
      <point x="230" y="-12"/>
      <point x="302" y="-12" type="curve" smooth="yes"/>
      <point x="399" y="-12"/>
      <point x="488" y="44"/>
      <point x="488" y="138" type="curve" smooth="yes"/>
      <point x="488" y="243"/>
      <point x="403" y="272"/>
      <point x="327" y="298" type="curve" smooth="yes"/>
      <point x="263" y="320"/>
      <point x="204" y="332"/>
      <point x="204" y="360" type="curve" smooth="yes"/>
      <point x="204" y="385"/>
      <point x="222" y="396"/>
      <point x="243" y="396" type="curve" smooth="yes"/>
      <point x="293" y="396"/>
      <point x="345" y="362"/>
      <point x="345" y="320" type="curve"/>
      <point x="475" y="320" type="line"/>
      <point x="475" y="500" type="line"/>
      <point x="352" y="500" type="line"/>
      <point x="344" y="434" type="line"/>
      <point x="323" y="477"/>
      <point x="263" y="512"/>
      <point x="195" y="512" type="curve" smooth="yes"/>
      <point x="124" y="512"/>
      <point x="19" y="469"/>
      <point x="19" y="367" type="curve" smooth="yes"/>
      <point x="19" y="273"/>
      <point x="84" y="231"/>
      <point x="152" y="207" type="curve" smooth="yes"/>
      <point x="224" y="182"/>
      <point x="299" y="177"/>
      <point x="299" y="147" type="curve" smooth="yes"/>
      <point x="299" y="119"/>
      <point x="275" y="113"/>
      <point x="255" y="113" type="curve" smooth="yes"/>
      <point x="225" y="113"/>
      <point x="149" y="127"/>
      <point x="149" y="180" type="curve"/>
      <point x="15" y="180" type="line"/>
      <point x="15" y="0" type="line"/>
    </contour>
  </outline>
</glyph>
<glyph name="t" format="1">
  <advance width="363"/>
  <unicode hex="0074"/>
  <outline>
    <contour>
      <point x="15" y="370" type="line"/>
      <point x="69" y="370" type="line"/>
      <point x="69" y="192" type="line" smooth="yes"/>
      <point x="72" y="64"/>
      <point x="77" y="-18"/>
      <point x="227" y="-18" type="curve" smooth="yes"/>
      <point x="250" y="-18"/>
      <point x="318" y="-11"/>
      <point x="348" y="1" type="curve"/>
      <point x="348" y="129" type="line"/>
      <point x="329" y="121"/>
      <point x="298" y="112"/>
      <point x="285" y="112" type="curve" smooth="yes"/>
      <point x="246" y="112"/>
      <point x="253" y="158"/>
      <point x="253" y="192" type="curve" smooth="yes"/>
      <point x="253" y="370" type="line"/>
      <point x="348" y="370" type="line"/>
      <point x="348" y="500" type="line"/>
      <point x="253" y="500" type="line"/>
      <point x="253" y="651" type="line"/>
      <point x="69" y="592" type="line"/>
      <point x="69" y="500" type="line"/>
      <point x="15" y="500" type="line"/>
    </contour>
    <contour>
      <point x="210" y="-10" type="move" name="bottom"/>
    </contour>
    <contour>
      <point x="182" y="250" type="move" name="center"/>
    </contour>
    <contour>
      <point x="182" y="634" type="move" name="top"/>
    </contour>
    <contour>
      <point x="360" y="592" type="move" name="topright"/>
    </contour>
  </outline>
</glyph>
<glyph name="u" format="1">
  <advance width="631"/>
  <unicode hex="0075"/>
  <outline>
    <contour>
      <point x="15" y="368" type="line"/>
      <point x="57" y="368" type="line"/>
      <point x="57" y="230" type="line" smooth="yes"/>
      <point x="57" y="64"/>
      <point x="107" y="-14"/>
      <point x="258" y="-14" type="curve" smooth="yes"/>
      <point x="343" y="-14"/>
      <point x="378" y="38"/>
      <point x="400" y="63" type="curve"/>
      <point x="427" y="0" type="line"/>
      <point x="616" y="0" type="line"/>
      <point x="616" y="133" type="line"/>
      <point x="567" y="133" type="line"/>
      <point x="567" y="500" type="line"/>
      <point x="308" y="500" type="line"/>
      <point x="308" y="368" type="line"/>
      <point x="374" y="368" type="line"/>
      <point x="374" y="209" type="line" smooth="yes"/>
      <point x="374" y="164"/>
      <point x="346" y="133"/>
      <point x="311" y="133" type="curve" smooth="yes"/>
      <point x="270" y="133"/>
      <point x="257" y="173"/>
      <point x="257" y="259" type="curve" smooth="yes"/>
      <point x="257" y="500" type="line"/>
      <point x="15" y="500" type="line"/>
    </contour>
  </outline>
</glyph>
<glyph name="v" format="1">
  <advance width="613"/>
  <unicode hex="0076"/>
  <outline>
    <contour>
      <point x="326" y="162" type="line"/>
      <point x="324" y="183"/>
      <point x="313" y="229"/>
      <point x="300" y="267" type="curve"/>
      <point x="254" y="373" type="line"/>
      <point x="304" y="373" type="line"/>
      <point x="304" y="500" type="line"/>
      <point x="0" y="500" type="line"/>
      <point x="0" y="373" type="line"/>
      <point x="47" y="373" type="line"/>
      <point x="233" y="0" type="line"/>
      <point x="388" y="0" type="line"/>
      <point x="561" y="373" type="line"/>
      <point x="613" y="373" type="line"/>
      <point x="613" y="500" type="line"/>
      <point x="355" y="500" type="line"/>
      <point x="355" y="373" type="line"/>
      <point x="408" y="373" type="line"/>
      <point x="360" y="272" type="line" smooth="yes"/>
      <point x="343" y="233"/>
      <point x="331" y="183"/>
      <point x="330" y="162" type="curve"/>
    </contour>
    <contour>
      <point x="307" y="0" type="move" name="bottom"/>
    </contour>
    <contour>
      <point x="307" y="500" type="move" name="top"/>
    </contour>
  </outline>
</glyph>
<glyph name="w" format="1">
  <advance width="872"/>
  <unicode hex="0077"/>
  <outline>
    <contour>
      <point x="282" y="153" type="line"/>
      <point x="280" y="182"/>
      <point x="271" y="249"/>
      <point x="257" y="297" type="curve" smooth="yes"/>
      <point x="235" y="370" type="line"/>
      <point x="269" y="370" type="line"/>
      <point x="269" y="500" type="line"/>
      <point x="0" y="500" type="line"/>
      <point x="0" y="370" type="line"/>
      <point x="43" y="370" type="line"/>
      <point x="156" y="0" type="line"/>
      <point x="362" y="0" type="line"/>
      <point x="434" y="226" type="line"/>
      <point x="503" y="0" type="line"/>
      <point x="714" y="0" type="line"/>
      <point x="831" y="370" type="line"/>
      <point x="872" y="370" type="line"/>
      <point x="872" y="500" type="line"/>
      <point x="628" y="500" type="line"/>
      <point x="628" y="370" type="line"/>
      <point x="669" y="370" type="line"/>
      <point x="652" y="311" type="line" smooth="yes"/>
      <point x="637" y="258"/>
      <point x="628" y="185"/>
      <point x="625" y="153" type="curve"/>
      <point x="623" y="153" type="line"/>
      <point x="619" y="188"/>
      <point x="604" y="293"/>
      <point x="580" y="370" type="curve" smooth="yes"/>
      <point x="542" y="500" type="line"/>
      <point x="357" y="500" type="line"/>
      <point x="325" y="388" type="line" smooth="yes"/>
      <point x="295" y="289"/>
      <point x="287" y="194"/>
      <point x="284" y="153" type="curve"/>
    </contour>
  </outline>
</glyph>
<glyph name="x" format="1">
  <advance width="649"/>
  <unicode hex="0078"/>
  <outline>
    <contour>
      <point x="375" y="375" type="line"/>
      <point x="442" y="375" type="line"/>
      <point x="367" y="299" type="line"/>
      <point x="297" y="375" type="line"/>
      <point x="344" y="375" type="line"/>
      <point x="344" y="500" type="line"/>
      <point x="20" y="500" type="line"/>
      <point x="20" y="375" type="line"/>
      <point x="65" y="375" type="line"/>
      <point x="189" y="239" type="line"/>
      <point x="87" y="124" type="line"/>
      <point x="20" y="124" type="line"/>
      <point x="20" y="0" type="line"/>
      <point x="276" y="0" type="line"/>
      <point x="276" y="124" type="line"/>
      <point x="211" y="124" type="line"/>
      <point x="283" y="205" type="line"/>
      <point x="359" y="124" type="line"/>
      <point x="312" y="124" type="line"/>
      <point x="312" y="0" type="line"/>
      <point x="631" y="0" type="line"/>
      <point x="631" y="124" type="line"/>
      <point x="584" y="124" type="line"/>
      <point x="458" y="268" type="line"/>
      <point x="564" y="375" type="line"/>
      <point x="630" y="375" type="line"/>
      <point x="630" y="500" type="line"/>
      <point x="375" y="500" type="line"/>
    </contour>
    <contour>
      <point x="325" y="0" type="move" name="bottom"/>
    </contour>
    <contour>
      <point x="325" y="500" type="move" name="top"/>
    </contour>
  </outline>
</glyph>
<glyph name="y" format="1">
  <advance width="580"/>
  <unicode hex="0079"/>
  <outline>
    <contour>
      <point x="317" y="217" type="line"/>
      <point x="252" y="373" type="line"/>
      <point x="299" y="373" type="line"/>
      <point x="299" y="500" type="line"/>
      <point x="-9" y="500" type="line"/>
      <point x="-9" y="372" type="line"/>
      <point x="32" y="372" type="line"/>
      <point x="227" y="2" type="line"/>
      <point x="213" y="-40" type="line" smooth="yes"/>
      <point x="203" y="-70"/>
      <point x="180" y="-99"/>
      <point x="149" y="-93" type="curve" smooth="yes"/>
      <point x="128" y="-89"/>
      <point x="108" y="-74"/>
      <point x="91" y="-59" type="curve"/>
      <point x="16" y="-177" type="line"/>
      <point x="46" y="-203"/>
      <point x="85" y="-224"/>
      <point x="137" y="-227" type="curve"/>
      <point x="282" y="-228"/>
      <point x="323" y="-148"/>
      <point x="352" y="-86" type="curve"/>
      <point x="542" y="376" type="line"/>
      <point x="590" y="376" type="line"/>
      <point x="590" y="500" type="line"/>
      <point x="336" y="500" type="line"/>
      <point x="336" y="373" type="line"/>
      <point x="382" y="373" type="line"/>
    </contour>
  </outline>
</glyph>
<glyph name="z" format="1">
  <advance width="553"/>
  <unicode hex="007A"/>
  <outline>
    <contour>
      <point x="155" y="300" type="line"/>
      <point x="155" y="371" type="line"/>
      <point x="266" y="371" type="line"/>
      <point x="25" y="131" type="line"/>
      <point x="25" y="0" type="line"/>
      <point x="528" y="0" type="line"/>
      <point x="528" y="199" type="line"/>
      <point x="387" y="199" type="line"/>
      <point x="387" y="131" type="line"/>
      <point x="282" y="131" type="line"/>
      <point x="520" y="371" type="line"/>
      <point x="520" y="500" type="line"/>
      <point x="25" y="500" type="line"/>
      <point x="25" y="300" type="line"/>
    </contour>
    <contour>
      <point x="277" y="0" type="move" name="bottom"/>
    </contour>
    <contour>
      <point x="277" y="500" type="move" name="top"/>
    </contour>
  </outline>
</glyph>
<glyph name="braceleft" format="1">
  <advance width="314"/>
  <unicode hex="007B"/>
  <outline>
    <contour>
      <point x="314" y="855" type="line"/>
      <point x="186" y="855"/>
      <point x="90" y="772"/>
      <point x="105" y="613" type="curve" smooth="yes"/>
      <point x="121" y="446"/>
      <point x="101" y="377"/>
      <point x="30" y="366" type="curve"/>
      <point x="30" y="239" type="line"/>
      <point x="69" y="239"/>
      <point x="248" y="302"/>
      <point x="227" y="511" type="curve" smooth="yes"/>
      <point x="209" y="691"/>
      <point x="251" y="722"/>
      <point x="314" y="722" type="curve"/>
    </contour>
    <contour>
      <point x="314" y="-250" type="curve"/>
      <point x="314" y="-117" type="line"/>
      <point x="251" y="-117"/>
      <point x="209" y="-86"/>
      <point x="227" y="94" type="curve" smooth="yes"/>
      <point x="248" y="303"/>
      <point x="69" y="366"/>
      <point x="30" y="366" type="curve"/>
      <point x="30" y="239" type="line"/>
      <point x="101" y="228"/>
      <point x="121" y="159"/>
      <point x="105" y="-8" type="curve" smooth="yes"/>
      <point x="90" y="-167"/>
      <point x="186" y="-250"/>
    </contour>
  </outline>
</glyph>
<glyph name="bar" format="1">
  <advance width="333"/>
  <unicode hex="007C"/>
  <outline>
    <contour>
      <point x="100" y="701" type="line"/>
      <point x="100" y="-204" type="line"/>
      <point x="233" y="-204" type="line"/>
      <point x="233" y="701" type="line"/>
    </contour>
  </outline>
</glyph>
<glyph name="cent" format="1">
  <advance width="531"/>
  <unicode hex="00A2"/>
  <outline>
    <contour>
      <point x="356" y="699" type="line"/>
      <point x="142" y="-143" type="line"/>
      <point x="210" y="-143" type="line"/>
      <point x="424" y="699" type="line"/>
    </contour>
    <component base="c"/>
  </outline>
</glyph>
<glyph name="sterling" format="1">
  <advance width="577"/>
  <unicode hex="00A3"/>
  <outline>
    <contour>
      <point x="449" y="472" type="curve"/>
      <point x="557" y="586" type="line"/>
      <point x="487" y="667"/>
      <point x="397" y="710"/>
      <point x="297" y="710" type="curve" smooth="yes"/>
      <point x="164" y="710"/>
      <point x="59" y="626"/>
      <point x="59" y="491" type="curve" smooth="yes"/>
      <point x="59" y="376"/>
      <point x="119" y="300"/>
      <point x="119" y="251" type="curve" smooth="yes"/>
      <point x="119" y="183"/>
      <point x="67" y="134"/>
      <point x="33" y="111" type="curve"/>
      <point x="33" y="0" type="line"/>
      <point x="143" y="0" type="line"/>
      <point x="193" y="36"/>
      <point x="300" y="157"/>
      <point x="300" y="260" type="curve" smooth="yes"/>
      <point x="300" y="355"/>
      <point x="242" y="420"/>
      <point x="242" y="482" type="curve" smooth="yes"/>
      <point x="242" y="533"/>
      <point x="280" y="548"/>
      <point x="326" y="548" type="curve" smooth="yes"/>
      <point x="380" y="548"/>
      <point x="419" y="504"/>
    </contour>
    <contour>
      <point x="119" y="133" type="line"/>
      <point x="119" y="0" type="line"/>
      <point x="545" y="0" type="line"/>
      <point x="545" y="213" type="line"/>
      <point x="377" y="213" type="line"/>
      <point x="377" y="133" type="line"/>
    </contour>
    <contour>
      <point x="0" y="403" type="line"/>
      <point x="0" y="304" type="line"/>
      <point x="436" y="304" type="line"/>
      <point x="436" y="403" type="line"/>
    </contour>
  </outline>
</glyph>
<glyph name="currency" format="1">
  <advance width="612"/>
  <unicode hex="00A4"/>
  <outline>
    <contour>
      <point x="138" y="94" type="curve" smooth="yes"/>
      <point x="231" y="2"/>
      <point x="382" y="1"/>
      <point x="474" y="94" type="curve" smooth="yes"/>
      <point x="566" y="187"/>
      <point x="567" y="338"/>
      <point x="474" y="430" type="curve" smooth="yes"/>
      <point x="381" y="522"/>
      <point x="230" y="523"/>
      <point x="138" y="430" type="curve" smooth="yes"/>
      <point x="46" y="337"/>
      <point x="45" y="186"/>
    </contour>
    <contour>
      <point x="226" y="182" type="curve" smooth="yes"/>
      <point x="182" y="225"/>
      <point x="183" y="298"/>
      <point x="226" y="342" type="curve" smooth="yes"/>
      <point x="269" y="386"/>
      <point x="342" y="385"/>
      <point x="386" y="342" type="curve" smooth="yes"/>
      <point x="430" y="299"/>
      <point x="429" y="226"/>
      <point x="386" y="182" type="curve" smooth="yes"/>
      <point x="343" y="138"/>
      <point x="270" y="139"/>
    </contour>
    <contour>
      <point x="527" y="548" type="line"/>
      <point x="428" y="449" type="line"/>
      <point x="493" y="384" type="line"/>
      <point x="592" y="483" type="line"/>
    </contour>
    <contour>
      <point x="119" y="140" type="line"/>
      <point x="20" y="41" type="line"/>
      <point x="85" y="-24" type="line"/>
      <point x="184" y="75" type="line"/>
    </contour>
    <contour>
      <point x="592" y="41" type="line"/>
      <point x="493" y="140" type="line"/>
      <point x="428" y="75" type="line"/>
      <point x="527" y="-24" type="line"/>
    </contour>
    <contour>
      <point x="184" y="449" type="line"/>
      <point x="85" y="548" type="line"/>
      <point x="20" y="483" type="line"/>
      <point x="119" y="384" type="line"/>
    </contour>
  </outline>
</glyph>
<glyph name="yen" format="1">
  <advance width="669"/>
  <unicode hex="00A5"/>
  <outline>
    <contour>
      <point x="67" y="374" type="line"/>
      <point x="67" y="305" type="line"/>
      <point x="615" y="305" type="line"/>
      <point x="615" y="374" type="line"/>
    </contour>
    <contour>
      <point x="67" y="246" type="line"/>
      <point x="67" y="177" type="line"/>
      <point x="615" y="177" type="line"/>
      <point x="615" y="246" type="line"/>
    </contour>
    <component base="Y"/>
  </outline>
</glyph>
<glyph name="brokenbar" format="1">
  <advance width="333"/>
  <unicode hex="00A6"/>
  <outline>
    <contour>
      <point x="100" y="701" type="line"/>
      <point x="100" y="347" type="line"/>
      <point x="233" y="347" type="line"/>
      <point x="233" y="701" type="line"/>
    </contour>
    <contour>
      <point x="100" y="199" type="line"/>
      <point x="100" y="-204" type="line"/>
      <point x="233" y="-204" type="line"/>
      <point x="233" y="199" type="line"/>
    </contour>
  </outline>
</glyph>
<glyph name="copyright" format="1">
  <advance width="737"/>
  <unicode hex="00A9"/>
  <outline>
    <contour>
      <point x="369" y="-14" type="curve" smooth="yes"/>
      <point x="566" y="-14"/>
      <point x="727" y="147"/>
      <point x="727" y="345" type="curve" smooth="yes"/>
      <point x="727" y="543"/>
      <point x="566" y="704"/>
      <point x="369" y="704" type="curve" smooth="yes"/>
      <point x="171" y="704"/>
      <point x="10" y="543"/>
      <point x="10" y="345" type="curve" smooth="yes"/>
      <point x="10" y="147"/>
      <point x="171" y="-14"/>
    </contour>
    <contour>
      <point x="369" y="19" type="curve" smooth="yes"/>
      <point x="189" y="19"/>
      <point x="43" y="165"/>
      <point x="43" y="345" type="curve" smooth="yes"/>
      <point x="43" y="525"/>
      <point x="189" y="671"/>
      <point x="369" y="671" type="curve" smooth="yes"/>
      <point x="548" y="671"/>
      <point x="694" y="525"/>
      <point x="694" y="345" type="curve" smooth="yes"/>
      <point x="694" y="165"/>
      <point x="548" y="19"/>
    </contour>
    <component base="c" xScale="0.722" yScale="0.722" xOffset="169" yOffset="165"/>
  </outline>
</glyph>
<glyph name="registered" format="1">
  <advance width="501"/>
  <unicode hex="00AE"/>
  <outline>
    <contour>
      <point x="251" y="221" type="curve" smooth="yes"/>
      <point x="383" y="221"/>
      <point x="491" y="330"/>
      <point x="491" y="463" type="curve" smooth="yes"/>
      <point x="491" y="596"/>
      <point x="383" y="704"/>
      <point x="251" y="704" type="curve" smooth="yes"/>
      <point x="118" y="704"/>
      <point x="10" y="596"/>
      <point x="10" y="463" type="curve" smooth="yes"/>
      <point x="10" y="330"/>
      <point x="118" y="221"/>
    </contour>
    <contour>
      <point x="251" y="251" type="curve" smooth="yes"/>
      <point x="134" y="251"/>
      <point x="38" y="346"/>
      <point x="38" y="463" type="curve" smooth="yes"/>
      <point x="38" y="580"/>
      <point x="134" y="675"/>
      <point x="251" y="675" type="curve" smooth="yes"/>
      <point x="367" y="675"/>
      <point x="463" y="580"/>
      <point x="463" y="463" type="curve" smooth="yes"/>
      <point x="463" y="346"/>
      <point x="367" y="251"/>
    </contour>
    <component base="R" xScale="0.371" yScale="0.371" xOffset="128" yOffset="333"/>
  </outline>
</glyph>
<glyph name="degree" format="1">
  <advance width="254"/>
  <unicode hex="00B0"/>
  <outline>
    <contour>
      <point x="127" y="553" type="curve" smooth="yes"/>
      <point x="185" y="553"/>
      <point x="234" y="601"/>
      <point x="234" y="659" type="curve" smooth="yes"/>
      <point x="234" y="718"/>
      <point x="185" y="766"/>
      <point x="127" y="766" type="curve" smooth="yes"/>
      <point x="68" y="766"/>
      <point x="20" y="718"/>
      <point x="20" y="659" type="curve" smooth="yes"/>
      <point x="20" y="601"/>
      <point x="68" y="553"/>
    </contour>
    <contour>
      <point x="127" y="603" type="curve" smooth="yes"/>
      <point x="95" y="603"/>
      <point x="70" y="629"/>
      <point x="70" y="659" type="curve" smooth="yes"/>
      <point x="70" y="690"/>
      <point x="95" y="716"/>
      <point x="127" y="716" type="curve" smooth="yes"/>
      <point x="157" y="716"/>
      <point x="183" y="690"/>
      <point x="183" y="659" type="curve" smooth="yes"/>
      <point x="183" y="629"/>
      <point x="157" y="603"/>
    </contour>
    <contour>
      <point x="127" y="563" type="move" name="_top"/>
    </contour>
    <contour>
      <point x="127" y="734" type="move" name="top"/>
    </contour>
  </outline>
</glyph>
<glyph name="questiondown" format="1">
  <advance width="520"/>
  <unicode hex="00BF"/>
  <outline>
    <contour>
      <point x="518" y="-25" type="line"/>
      <point x="448" y="-106"/>
      <point x="358" y="-154"/>
      <point x="258" y="-154" type="curve" smooth="yes"/>
      <point x="125" y="-154"/>
      <point x="20" y="-84"/>
      <point x="20" y="51" type="curve" smooth="yes"/>
      <point x="20" y="181"/>
      <point x="179" y="213"/>
      <point x="179" y="273" type="curve" smooth="yes"/>
      <point x="179" y="328" type="line"/>
      <point x="364" y="328" type="line"/>
      <point x="365" y="248" type="line" smooth="yes"/>
      <point x="365" y="156"/>
      <point x="206" y="104"/>
      <point x="206" y="49" type="curve" smooth="yes"/>
      <point x="206" y="11"/>
      <point x="245" y="2"/>
      <point x="280" y="2" type="curve" smooth="yes"/>
      <point x="323" y="2"/>
      <point x="376" y="44"/>
      <point x="410" y="84" type="curve"/>
    </contour>
    <contour>
      <point x="391" y="511"/>
      <point x="342" y="562"/>
      <point x="277" y="562" type="curve" smooth="yes"/>
      <point x="204" y="562"/>
      <point x="158" y="515"/>
      <point x="158" y="459" type="curve" smooth="yes"/>
      <point x="158" y="402"/>
      <point x="206" y="353"/>
      <point x="277" y="353" type="curve" smooth="yes"/>
      <point x="349" y="353"/>
      <point x="391" y="409"/>
      <point x="391" y="459" type="curve" smooth="yes"/>
    </contour>
  </outline>
</glyph>
<glyph name="AE" format="1">
  <advance width="1080"/>
  <unicode hex="00C6"/>
  <outline>
    <contour>
      <point x="654" y="0" type="line"/>
      <point x="654" y="699" type="line"/>
      <point x="299" y="699" type="line"/>
      <point x="299" y="570" type="line"/>
      <point x="340" y="570" type="line"/>
      <point x="83" y="131" type="line"/>
      <point x="15" y="131" type="line"/>
      <point x="15" y="0" type="line"/>
      <point x="333" y="0" type="line"/>
      <point x="333" y="131" type="line"/>
      <point x="255" y="131" type="line"/>
      <point x="295" y="199" type="line"/>
      <point x="501" y="199" type="line"/>
      <point x="501" y="131" type="line"/>
      <point x="407" y="131" type="line"/>
      <point x="407" y="0" type="line"/>
    </contour>
    <contour>
      <point x="501" y="575" type="line"/>
      <point x="501" y="319" type="line"/>
      <point x="365" y="319" type="line"/>
    </contour>
    <contour>
      <point x="561" y="699" type="line"/>
      <point x="561" y="0" type="line"/>
      <point x="1055" y="0" type="line"/>
      <point x="1055" y="226" type="line"/>
      <point x="882" y="226" type="line"/>
      <point x="882" y="133" type="line"/>
      <point x="722" y="133" type="line"/>
      <point x="722" y="296" type="line"/>
      <point x="912" y="296" type="line"/>
      <point x="912" y="429" type="line"/>
      <point x="722" y="429" type="line"/>
      <point x="722" y="567" type="line"/>
      <point x="882" y="567" type="line"/>
      <point x="882" y="478" type="line"/>
      <point x="1055" y="478" type="line"/>
      <point x="1055" y="699" type="line"/>
    </contour>
    <contour>
      <point x="580" y="0" type="move" name="bottom"/>
    </contour>
    <contour>
      <point x="580" y="699" type="move" name="top"/>
    </contour>
  </outline>
</glyph>
<glyph name="Eth" format="1">
  <advance width="720"/>
  <unicode hex="00D0"/>
  <outline>
    <contour>
      <point x="-5" y="410" type="line"/>
      <point x="-5" y="278" type="line"/>
      <point x="402" y="278" type="line"/>
      <point x="402" y="410" type="line"/>
    </contour>
    <component base="D"/>
  </outline>
</glyph>
<glyph name="Oslash" format="1">
  <advance width="740"/>
  <unicode hex="00D8"/>
  <outline>
    <contour>
      <point x="586" y="736" type="line"/>
      <point x="84" y="-9" type="line"/>
      <point x="184" y="-45" type="line"/>
      <point x="686" y="700" type="line"/>
    </contour>
    <component base="O"/>
  </outline>
</glyph>
<glyph name="Thorn" format="1">
  <advance width="707"/>
  <unicode hex="00DE"/>
  <outline>
    <contour>
      <point x="25" y="567" type="line"/>
      <point x="138" y="567" type="line"/>
      <point x="138" y="133" type="line"/>
      <point x="25" y="133" type="line"/>
      <point x="25" y="0" type="line"/>
      <point x="457" y="0" type="line"/>
      <point x="457" y="133" type="line"/>
      <point x="345" y="133" type="line"/>
      <point x="345" y="567" type="line"/>
      <point x="457" y="567" type="line"/>
      <point x="457" y="699" type="line"/>
      <point x="25" y="699" type="line"/>
    </contour>
    <contour>
      <point x="321" y="305" type="line"/>
      <point x="322" y="171" type="line"/>
      <point x="480" y="171" type="line" smooth="yes"/>
      <point x="646" y="171"/>
      <point x="697" y="240"/>
      <point x="697" y="358" type="curve" smooth="yes"/>
      <point x="697" y="466"/>
      <point x="649" y="529"/>
      <point x="477" y="529" type="curve" smooth="yes"/>
      <point x="321" y="529" type="line"/>
      <point x="323" y="408" type="line"/>
      <point x="389" y="408" type="line" smooth="yes"/>
      <point x="469" y="408"/>
      <point x="495" y="396"/>
      <point x="495" y="356" type="curve" smooth="yes"/>
      <point x="495" y="315"/>
      <point x="463" y="305"/>
      <point x="390" y="305" type="curve" smooth="yes"/>
    </contour>
    <contour>
      <point x="241" y="0" type="move" name="bottom"/>
    </contour>
    <contour>
      <point x="394" y="10" type="move" name="ogonek"/>
    </contour>
    <contour>
      <point x="241" y="699" type="move" name="top"/>
    </contour>
    <contour>
      <point x="70" y="699" type="move" name="topleft"/>
    </contour>
  </outline>
</glyph>
<glyph name="germandbls" format="1">
  <advance width="718"/>
  <unicode hex="00DF"/>
  <outline>
    <contour>
      <point x="295" y="527" type="line"/>
      <point x="88" y="465" type="line"/>
      <point x="88" y="133" type="line"/>
      <point x="25" y="133" type="line"/>
      <point x="25" y="0" type="line"/>
      <point x="295" y="0" type="line"/>
    </contour>
    <contour>
      <point x="391" y="432" type="curve"/>
      <point x="391" y="353" type="line"/>
      <point x="466" y="353"/>
      <point x="653" y="363"/>
      <point x="653" y="532" type="curve" smooth="yes"/>
      <point x="653" y="670"/>
      <point x="542" y="756"/>
      <point x="394" y="756" type="curve" smooth="yes"/>
      <point x="221" y="756"/>
      <point x="88" y="677"/>
      <point x="88" y="465" type="curve"/>
      <point x="114" y="448" type="line"/>
      <point x="295" y="488" type="line"/>
      <point x="295" y="587"/>
      <point x="357" y="604"/>
      <point x="397" y="604" type="curve" smooth="yes"/>
      <point x="446" y="604"/>
      <point x="486" y="571"/>
      <point x="486" y="535" type="curve" smooth="yes"/>
      <point x="486" y="492"/>
      <point x="457" y="446"/>
    </contour>
    <contour>
      <point x="343" y="138" type="curve"/>
      <point x="343" y="-4" type="line"/>
      <point x="344" y="-5"/>
      <point x="391" y="-21"/>
      <point x="445" y="-21" type="curve" smooth="yes"/>
      <point x="573" y="-21"/>
      <point x="693" y="23"/>
      <point x="693" y="199" type="curve" smooth="yes"/>
      <point x="693" y="385"/>
      <point x="466" y="418"/>
      <point x="391" y="418" type="curve"/>
      <point x="391" y="334" type="line"/>
      <point x="457" y="330"/>
      <point x="496" y="283"/>
      <point x="496" y="220" type="curve" smooth="yes"/>
      <point x="496" y="174"/>
      <point x="488" y="122"/>
      <point x="409" y="122" type="curve" smooth="yes"/>
      <point x="373" y="122"/>
      <point x="346" y="136"/>
    </contour>
  </outline>
</glyph>
<glyph name="ae" format="1">
  <advance width="878"/>
  <unicode hex="00E6"/>
  <outline>
    <contour>
      <point x="78" y="342" type="line"/>
      <point x="116" y="363"/>
      <point x="168" y="388"/>
      <point x="227" y="388" type="curve" smooth="yes"/>
      <point x="281" y="388"/>
      <point x="322" y="377"/>
      <point x="322" y="332" type="curve" smooth="yes"/>
      <point x="322" y="297" type="line"/>
      <point x="317" y="303"/>
      <point x="282" y="332"/>
      <point x="223" y="332" type="curve" smooth="yes"/>
      <point x="110" y="332"/>
      <point x="15" y="261"/>
      <point x="15" y="148" type="curve" smooth="yes"/>
      <point x="15" y="32"/>
      <point x="117" y="-19"/>
      <point x="212" y="-19" type="curve" smooth="yes"/>
      <point x="376" y="-19"/>
      <point x="447" y="65"/>
      <point x="484" y="116" type="curve"/>
      <point x="525" y="247" type="line"/>
      <point x="515" y="313" type="line" smooth="yes"/>
      <point x="491" y="472"/>
      <point x="374" y="529"/>
      <point x="254" y="529" type="curve" smooth="yes"/>
      <point x="162" y="529"/>
      <point x="76" y="482"/>
      <point x="36" y="458" type="curve"/>
    </contour>
    <contour>
      <point x="258" y="111" type="curve" smooth="yes"/>
      <point x="228" y="111"/>
      <point x="205" y="130"/>
      <point x="205" y="158" type="curve" smooth="yes"/>
      <point x="205" y="189"/>
      <point x="223" y="211"/>
      <point x="263" y="211" type="curve" smooth="yes"/>
      <point x="305" y="211"/>
      <point x="319" y="187"/>
      <point x="322" y="182" type="curve"/>
      <point x="322" y="144" type="line"/>
      <point x="313" y="129"/>
      <point x="288" y="111"/>
    </contour>
    <component base="e" xOffset="326"/>
    <contour>
      <point x="439" y="0" type="move" name="bottom"/>
    </contour>
    <contour>
      <point x="439" y="500" type="move" name="top"/>
    </contour>
  </outline>
</glyph>
<glyph name="eth" format="1">
  <advance width="583"/>
  <unicode hex="00F0"/>
  <outline>
    <contour>
      <point x="563" y="246" type="line"/>
      <point x="563" y="522"/>
      <point x="492" y="719"/>
      <point x="197" y="776" type="curve"/>
      <point x="138" y="662" type="line"/>
      <point x="162" y="658"/>
      <point x="352" y="633"/>
      <point x="352" y="477" type="curve"/>
    </contour>
    <contour>
      <point x="304" y="804" type="line"/>
      <point x="166" y="580" type="line"/>
      <point x="227" y="544" type="line"/>
      <point x="365" y="768" type="line"/>
    </contour>
    <component base="o"/>
  </outline>
</glyph>
<glyph name="oslash" format="1">
  <advance width="574"/>
  <unicode hex="00F8"/>
  <outline>
    <contour>
      <point x="440" y="539" type="line"/>
      <point x="64" y="-18" type="line"/>
      <point x="139" y="-45" type="line"/>
      <point x="514" y="512" type="line"/>
    </contour>
    <component base="o"/>
  </outline>
</glyph>
<glyph name="thorn" format="1">
  <advance width="656"/>
  <unicode hex="00FE"/>
  <outline>
    <contour>
      <point x="323" y="-250" type="line"/>
      <point x="323" y="-120" type="line"/>
      <point x="273" y="-120" type="line"/>
      <point x="273" y="34" type="line"/>
      <point x="301" y="10"/>
      <point x="327" y="-11"/>
      <point x="403" y="-11" type="curve" smooth="yes"/>
      <point x="544" y="-11"/>
      <point x="631" y="92"/>
      <point x="634" y="246" type="curve" smooth="yes"/>
      <point x="637" y="380"/>
      <point x="556" y="508"/>
      <point x="404" y="508" type="curve" smooth="yes"/>
      <point x="355" y="508"/>
      <point x="295" y="487"/>
      <point x="273" y="461" type="curve"/>
      <point x="273" y="750" type="line"/>
      <point x="31" y="750" type="line"/>
      <point x="31" y="619" type="line"/>
      <point x="73" y="619" type="line"/>
      <point x="73" y="-120" type="line"/>
      <point x="31" y="-120" type="line"/>
      <point x="31" y="-250" type="line"/>
    </contour>
    <contour>
      <point x="414" y="168"/>
      <point x="385" y="119"/>
      <point x="343" y="119" type="curve" smooth="yes"/>
      <point x="305" y="119"/>
      <point x="271" y="171"/>
      <point x="271" y="239" type="curve"/>
      <point x="267" y="318"/>
      <point x="303" y="367"/>
      <point x="342" y="367" type="curve" smooth="yes"/>
      <point x="386" y="367"/>
      <point x="414" y="304"/>
      <point x="414" y="244" type="curve" smooth="yes"/>
    </contour>
    <contour>
      <point x="328" y="0" type="move" name="bottom"/>
    </contour>
    <contour>
      <point x="328" y="750" type="move" name="top"/>
    </contour>
  </outline>
</glyph>
<glyph name="Hbar" format="1">
  <advance width="768"/>
  <unicode hex="0126"/>
  <outline>
    <contour>
      <point x="28" y="519" type="line"/>
      <point x="28" y="456" type="line"/>
      <point x="743" y="456" type="line"/>
      <point x="743" y="519" type="line"/>
    </contour>
    <component base="H"/>
  </outline>
</glyph>
<glyph name="idotless" format="1">
  <advance width="330"/>
  <unicode hex="0131"/>
  <outline>
    <contour>
      <point x="305" y="131" type="line"/>
      <point x="257" y="131" type="line"/>
      <point x="257" y="500" type="line"/>
      <point x="25" y="500" type="line"/>
      <point x="25" y="370" type="line"/>
      <point x="67" y="370" type="line"/>
      <point x="67" y="131" type="line"/>
      <point x="25" y="131" type="line"/>
      <point x="25" y="0" type="line"/>
      <point x="305" y="0" type="line"/>
    </contour>
    <contour>
      <point x="165" y="0" type="move" name="bottom"/>
    </contour>
    <contour>
      <point x="297" y="10" type="move" name="ogonek"/>
    </contour>
    <contour>
      <point x="165" y="500" type="move" name="top"/>
    </contour>
  </outline>
</glyph>
<glyph name="Lslash" format="1">
  <advance width="610"/>
  <unicode hex="0141"/>
  <outline>
    <contour>
      <point x="16" y="382" type="line"/>
      <point x="16" y="283" type="line"/>
      <point x="355" y="353" type="line"/>
      <point x="355" y="452" type="line"/>
    </contour>
    <component base="L"/>
  </outline>
</glyph>
<glyph name="lslash" format="1">
  <advance width="332"/>
  <unicode hex="0142"/>
  <outline>
    <contour>
      <point x="16" y="382" type="line"/>
      <point x="16" y="283" type="line"/>
      <point x="325" y="353" type="line"/>
      <point x="325" y="452" type="line"/>
    </contour>
    <component base="l"/>
  </outline>
</glyph>
<glyph name="Eng" format="1">
  <advance width="816"/>
  <unicode hex="014A"/>
  <outline>
    <contour>
      <point x="383" y="-257" type="line"/>
      <point x="398" y="-263"/>
      <point x="416" y="-268"/>
      <point x="435" y="-268" type="curve" smooth="yes"/>
      <point x="641" y="-268"/>
      <point x="725" y="-167"/>
      <point x="725" y="10" type="curve" smooth="yes"/>
      <point x="725" y="35" type="line"/>
      <point x="510" y="35" type="line"/>
      <point x="510" y="10" type="line" smooth="yes"/>
      <point x="510" y="-97"/>
      <point x="477" y="-134"/>
      <point x="427" y="-134" type="curve" smooth="yes"/>
      <point x="409" y="-134"/>
      <point x="395" y="-131"/>
      <point x="382" y="-125" type="curve"/>
    </contour>
    <component base="N"/>
  </outline>
</glyph>
<glyph name="eng" format="1">
  <advance width="600"/>
  <unicode hex="014B"/>
  <outline>
    <contour>
      <point x="333" y="131" type="line"/>
      <point x="261" y="131" type="line"/>
      <point x="261" y="273" type="line" smooth="yes"/>
      <point x="261" y="316"/>
      <point x="273" y="366"/>
      <point x="324" y="366" type="curve" smooth="yes"/>
      <point x="383" y="366"/>
      <point x="380" y="307"/>
      <point x="380" y="273" type="curve" smooth="yes"/>
      <point x="380" y="10" type="line"/>
      <point x="585" y="22" type="line"/>
      <point x="585" y="298" type="line" smooth="yes"/>
      <point x="585" y="403"/>
      <point x="559" y="518"/>
      <point x="404" y="518" type="curve" smooth="yes"/>
      <point x="341" y="518"/>
      <point x="295" y="485"/>
      <point x="261" y="438" type="curve"/>
      <point x="238" y="500" type="line"/>
      <point x="25" y="500" type="line"/>
      <point x="25" y="370" type="line"/>
      <point x="67" y="370" type="line"/>
      <point x="67" y="131" type="line"/>
      <point x="25" y="131" type="line"/>
      <point x="25" y="0" type="line"/>
      <point x="333" y="0" type="line"/>
    </contour>
    <contour>
      <point x="253" y="-257" type="line"/>
      <point x="268" y="-263"/>
      <point x="286" y="-268"/>
      <point x="305" y="-268" type="curve" smooth="yes"/>
      <point x="511" y="-268"/>
      <point x="585" y="-167"/>
      <point x="585" y="10" type="curve" smooth="yes"/>
      <point x="585" y="35" type="line"/>
      <point x="380" y="35" type="line"/>
      <point x="380" y="10" type="line" smooth="yes"/>
      <point x="380" y="-97"/>
      <point x="347" y="-134"/>
      <point x="297" y="-134" type="curve" smooth="yes"/>
      <point x="279" y="-134"/>
      <point x="265" y="-131"/>
      <point x="252" y="-125" type="curve"/>
    </contour>
    <contour>
      <point x="324" y="0" type="move" name="bottom"/>
    </contour>
    <contour>
      <point x="324" y="500" type="move" name="top"/>
    </contour>
  </outline>
</glyph>
<glyph name="OE" format="1">
  <advance width="1109"/>
  <unicode hex="0152"/>
  <outline>
    <component base="O"/>
    <component base="E" xOffset="456"/>
    <contour>
      <point x="555" y="0" type="move" name="bottom"/>
    </contour>
    <contour>
      <point x="555" y="699" type="move" name="top"/>
    </contour>
  </outline>
</glyph>
<glyph name="oe" format="1">
  <advance width="920"/>
  <unicode hex="0153"/>
  <outline>
    <component base="o"/>
    <component base="e" xOffset="363"/>
    <contour>
      <point x="460" y="0" type="move" name="bottom"/>
    </contour>
    <contour>
      <point x="460" y="500" type="move" name="top"/>
    </contour>
  </outline>
</glyph>
<glyph name="Tbar" format="1">
  <advance width="701"/>
  <unicode hex="0166"/>
  <outline>
    <contour>
      <point x="143" y="370" type="line"/>
      <point x="143" y="284" type="line"/>
      <point x="561" y="284" type="line"/>
      <point x="561" y="370" type="line"/>
    </contour>
    <component base="T"/>
  </outline>
</glyph>
<glyph name="tbar" format="1">
  <advance width="363"/>
  <unicode hex="0167"/>
  <outline>
    <contour>
      <point x="16" y="326" type="line"/>
      <point x="16" y="240" type="line"/>
      <point x="348" y="240" type="line"/>
      <point x="348" y="326" type="line"/>
    </contour>
    <component base="t"/>
  </outline>
</glyph>
<glyph name="gravecomb" format="1">
  <advance width="402"/>
  <unicode hex="0300"/>
  <outline>
    <contour>
      <point x="50" y="699" type="line"/>
      <point x="240" y="584" type="line"/>
      <point x="352" y="604" type="line"/>
      <point x="202" y="719" type="line"/>
    </contour>
    <contour>
      <point x="201" y="500" type="move" name="_top"/>
    </contour>
    <contour>
      <point x="201" y="719" type="move" name="top"/>
    </contour>
  </outline>
</glyph>
<glyph name="acutecomb" format="1">
  <advance width="402"/>
  <unicode hex="0301"/>
  <outline>
    <contour>
      <point x="352" y="699" type="line"/>
      <point x="200" y="719" type="line"/>
      <point x="50" y="604" type="line"/>
      <point x="162" y="584" type="line"/>
    </contour>
    <contour>
      <point x="201" y="500" type="move" name="_top"/>
    </contour>
    <contour>
      <point x="201" y="719" type="move" name="top"/>
    </contour>
  </outline>
</glyph>
<glyph name="circumflexcomb" format="1">
  <advance width="463"/>
  <unicode hex="0302"/>
  <outline>
    <contour>
      <point x="185" y="699" type="line"/>
      <point x="50" y="584" type="line"/>
      <point x="166" y="549" type="line"/>
      <point x="278" y="699" type="line"/>
    </contour>
    <contour>
      <point x="278" y="699" type="line"/>
      <point x="185" y="699" type="line"/>
      <point x="297" y="549" type="line"/>
      <point x="413" y="584" type="line"/>
    </contour>
    <contour>
      <point x="232" y="500" type="move" name="_top"/>
    </contour>
    <contour>
      <point x="232" y="699" type="move" name="top"/>
    </contour>
  </outline>
</glyph>
<glyph name="tildecomb" format="1">
  <advance width="447"/>
  <unicode hex="0303"/>
  <outline>
    <contour>
      <point x="291" y="554" type="curve" smooth="yes"/>
      <point x="345" y="556"/>
      <point x="380" y="595"/>
      <point x="397" y="652" type="curve"/>
      <point x="327" y="695" type="line"/>
      <point x="324" y="687"/>
      <point x="301" y="643"/>
      <point x="280" y="641" type="curve" smooth="yes"/>
      <point x="241" y="637"/>
      <point x="223" y="710"/>
      <point x="155" y="707" type="curve" smooth="yes"/>
      <point x="102" y="705"/>
      <point x="67" y="666"/>
      <point x="50" y="609" type="curve"/>
      <point x="121" y="566" type="line"/>
      <point x="122" y="574"/>
      <point x="146" y="618"/>
      <point x="167" y="620" type="curve" smooth="yes"/>
      <point x="205" y="624"/>
      <point x="225" y="552"/>
    </contour>
    <contour>
      <point x="224" y="500" type="move" name="_top"/>
    </contour>
    <contour>
      <point x="224" y="717" type="move" name="top"/>
    </contour>
  </outline>
</glyph>
<glyph name="macroncomb" format="1">
  <advance width="550"/>
  <unicode hex="0304"/>
  <outline>
    <contour>
      <point x="50" y="678" type="line"/>
      <point x="50" y="595" type="line"/>
      <point x="500" y="595" type="line"/>
      <point x="500" y="678" type="line"/>
    </contour>
    <contour>
      <point x="275" y="500" type="move" name="_top"/>
    </contour>
    <contour>
      <point x="275" y="678" type="move" name="top"/>
    </contour>
  </outline>
</glyph>
<glyph name="brevecomb" format="1">
  <advance width="385"/>
  <unicode hex="0306"/>
  <outline>
    <contour>
      <point x="335" y="662" type="curve"/>
      <point x="233" y="685" type="line"/>
      <point x="233" y="642"/>
      <point x="214" y="616"/>
      <point x="193" y="616" type="curve" smooth="yes"/>
      <point x="171" y="616"/>
      <point x="152" y="642"/>
      <point x="152" y="685" type="curve"/>
      <point x="50" y="662" type="line"/>
      <point x="54" y="586"/>
      <point x="116" y="538"/>
      <point x="193" y="538" type="curve" smooth="yes"/>
      <point x="269" y="538"/>
      <point x="331" y="586"/>
    </contour>
    <contour>
      <point x="193" y="500" type="move" name="_top"/>
    </contour>
    <contour>
      <point x="193" y="685" type="move" name="top"/>
    </contour>
  </outline>
</glyph>
<glyph name="dotaccentcomb" format="1">
  <advance width="244"/>
  <unicode hex="0307"/>
  <outline>
    <contour>
      <point x="123" y="535" type="curve" smooth="yes"/>
      <point x="162" y="535"/>
      <point x="194" y="568"/>
      <point x="194" y="608" type="curve" smooth="yes"/>
      <point x="194" y="646"/>
      <point x="162" y="679"/>
      <point x="123" y="679" type="curve" smooth="yes"/>
      <point x="83" y="679"/>
      <point x="50" y="646"/>
      <point x="50" y="608" type="curve" smooth="yes"/>
      <point x="50" y="568"/>
      <point x="83" y="535"/>
    </contour>
    <contour>
      <point x="122" y="500" type="move" name="_top"/>
    </contour>
    <contour>
      <point x="122" y="679" type="move" name="top"/>
    </contour>
  </outline>
</glyph>
<glyph name="dieresiscomb" format="1">
  <advance width="409"/>
  <unicode hex="0308"/>
  <outline>
    <contour>
      <point x="90" y="535" type="curve" smooth="yes"/>
      <point x="129" y="535"/>
      <point x="162" y="568"/>
      <point x="162" y="608" type="curve" smooth="yes"/>
      <point x="162" y="646"/>
      <point x="129" y="679"/>
      <point x="90" y="679" type="curve" smooth="yes"/>
      <point x="50" y="679"/>
      <point x="18" y="646"/>
      <point x="18" y="608" type="curve" smooth="yes"/>
      <point x="18" y="568"/>
      <point x="50" y="535"/>
    </contour>
    <contour>
      <point x="320" y="535" type="curve" smooth="yes"/>
      <point x="359" y="535"/>
      <point x="391" y="568"/>
      <point x="391" y="608" type="curve" smooth="yes"/>
      <point x="391" y="646"/>
      <point x="359" y="679"/>
      <point x="320" y="679" type="curve" smooth="yes"/>
      <point x="280" y="679"/>
      <point x="247" y="646"/>
      <point x="247" y="608" type="curve" smooth="yes"/>
      <point x="247" y="568"/>
      <point x="280" y="535"/>
    </contour>
    <contour>
      <point x="205" y="500" type="move" name="_top"/>
    </contour>
    <contour>
      <point x="205" y="699" type="move" name="top"/>
    </contour>
  </outline>
</glyph>
<glyph name="ringcomb" format="1">
  <advance width="304"/>
  <unicode hex="030A"/>
  <outline>
    <contour>
      <point x="152" y="530" type="curve" smooth="yes"/>
      <point x="208" y="530"/>
      <point x="254" y="576"/>
      <point x="254" y="632" type="curve" smooth="yes"/>
      <point x="254" y="688"/>
      <point x="208" y="734"/>
      <point x="152" y="734" type="curve" smooth="yes"/>
      <point x="96" y="734"/>
      <point x="50" y="688"/>
      <point x="50" y="632" type="curve" smooth="yes"/>
      <point x="50" y="576"/>
      <point x="96" y="530"/>
    </contour>
    <contour>
      <point x="152" y="595" type="curve" smooth="yes"/>
      <point x="132" y="595"/>
      <point x="115" y="612"/>
      <point x="115" y="632" type="curve" smooth="yes"/>
      <point x="115" y="652"/>
      <point x="132" y="669"/>
      <point x="152" y="669" type="curve" smooth="yes"/>
      <point x="172" y="669"/>
      <point x="189" y="652"/>
      <point x="189" y="632" type="curve" smooth="yes"/>
      <point x="189" y="612"/>
      <point x="172" y="595"/>
    </contour>
    <contour>
      <point x="152" y="500" type="move" name="_top"/>
    </contour>
    <contour>
      <point x="152" y="734" type="move" name="top"/>
    </contour>
  </outline>
</glyph>
<glyph name="hungarumlautcomb" format="1">
  <advance width="530"/>
  <unicode hex="030B"/>
  <outline>
    <contour>
      <point x="292" y="709" type="line"/>
      <point x="160" y="729" type="line"/>
      <point x="50" y="604" type="line"/>
      <point x="122" y="584" type="line"/>
    </contour>
    <contour>
      <point x="480" y="689" type="line"/>
      <point x="348" y="709" type="line"/>
      <point x="218" y="604" type="line"/>
      <point x="290" y="584" type="line"/>
    </contour>
    <contour>
      <point x="265" y="500" type="move" name="_top"/>
    </contour>
    <contour>
      <point x="265" y="729" type="move" name="top"/>
    </contour>
  </outline>
</glyph>
<glyph name="caroncomb" format="1">
  <advance width="463"/>
  <unicode hex="030C"/>
  <outline>
    <contour>
      <point x="185" y="549" type="line"/>
      <point x="278" y="549" type="line"/>
      <point x="166" y="699" type="line"/>
      <point x="50" y="664" type="line"/>
    </contour>
    <contour>
      <point x="278" y="549" type="line"/>
      <point x="413" y="664" type="line"/>
      <point x="297" y="699" type="line"/>
      <point x="185" y="549" type="line"/>
    </contour>
    <contour>
      <point x="232" y="500" type="move" name="_top"/>
    </contour>
    <contour>
      <point x="232" y="699" type="move" name="top"/>
    </contour>
  </outline>
</glyph>
<glyph name="commaturnedabovecomb" format="1">
  <advance width="254"/>
  <unicode hex="0312"/>
  <outline>
    <contour>
      <point x="144" y="767" type="line"/>
      <point x="80" y="723"/>
      <point x="48" y="656"/>
      <point x="50" y="589" type="curve"/>
      <point x="155" y="564" type="line"/>
      <point x="150" y="643"/>
      <point x="167" y="687"/>
      <point x="204" y="733" type="curve"/>
    </contour>
    <contour>
      <point x="127" y="500" type="move" name="_top"/>
    </contour>
    <contour>
      <point x="127" y="767" type="move" name="top"/>
    </contour>
  </outline>
</glyph>
<glyph name="commaaccentcomb" format="1">
  <advance width="278"/>
  <unicode hex="0326"/>
  <outline>
    <contour>
      <point x="124" y="-332" type="line"/>
      <point x="190" y="-274"/>
      <point x="231" y="-196"/>
      <point x="228" y="-113" type="curve"/>
      <point x="111" y="-82" type="line"/>
      <point x="118" y="-179"/>
      <point x="96" y="-233"/>
      <point x="50" y="-290" type="curve"/>
    </contour>
    <contour>
      <point x="139" y="0" type="move" name="_bottom"/>
    </contour>
    <contour>
      <point x="139" y="-332" type="move" name="bottom"/>
    </contour>
  </outline>
</glyph>
<glyph name="cedillacomb" format="1">
  <advance width="348"/>
  <unicode hex="0327"/>
  <outline>
    <contour>
      <point x="96" y="-103" type="line"/>
      <point x="161" y="-115" type="line"/>
      <point x="163" y="-104"/>
      <point x="181" y="-88"/>
      <point x="201" y="-88" type="curve" smooth="yes"/>
      <point x="227" y="-88"/>
      <point x="239" y="-104"/>
      <point x="239" y="-129" type="curve" smooth="yes"/>
      <point x="239" y="-155"/>
      <point x="225" y="-168"/>
      <point x="187" y="-170" type="curve" smooth="yes"/>
      <point x="163" y="-171"/>
      <point x="133" y="-164"/>
      <point x="119" y="-149" type="curve"/>
      <point x="70" y="-196" type="line"/>
      <point x="91" y="-219"/>
      <point x="134" y="-241"/>
      <point x="191" y="-241" type="curve" smooth="yes"/>
      <point x="256" y="-241"/>
      <point x="328" y="-202"/>
      <point x="328" y="-124" type="curve" smooth="yes"/>
      <point x="328" y="-56"/>
      <point x="276" y="-18"/>
      <point x="220" y="-22" type="curve" smooth="yes"/>
      <point x="180" y="-25"/>
      <point x="159" y="-47"/>
      <point x="154" y="-56" type="curve"/>
      <point x="158" y="14" type="line"/>
      <point x="106" y="14" type="line"/>
    </contour>
    <contour>
      <point x="144" y="0" type="move" name="_bottom"/>
    </contour>
    <contour>
      <point x="174" y="-241" type="move" name="bottom"/>
    </contour>
  </outline>
</glyph>
<glyph name="ogonekcomb" format="1">
  <advance width="377"/>
  <unicode hex="0328"/>
  <outline>
    <contour>
      <point x="126" y="15" type="line"/>
      <point x="111" y="2"/>
      <point x="50" y="-36"/>
      <point x="50" y="-115" type="curve" smooth="yes"/>
      <point x="50" y="-214"/>
      <point x="184" y="-258"/>
      <point x="327" y="-179" type="curve"/>
      <point x="275" y="-106" type="line"/>
      <point x="169" y="-147"/>
      <point x="133" y="-100"/>
      <point x="133" y="-68" type="curve" smooth="yes"/>
      <point x="133" y="-38"/>
      <point x="162" y="-13"/>
      <point x="182" y="5" type="curve"/>
    </contour>
    <contour>
      <point x="133" y="3" type="move" name="_ogonek"/>
    </contour>
  </outline>
</glyph>
<glyph name="endash" format="1">
  <advance width="447"/>
  <unicode hex="2013"/>
  <outline>
    <contour>
      <point x="32" y="172" type="line"/>
      <point x="409" y="172" type="line"/>
      <point x="409" y="305" type="line"/>
      <point x="32" y="305" type="line"/>
    </contour>
  </outline>
</glyph>
<glyph name="emdash" format="1">
  <advance width="631"/>
  <unicode hex="2014"/>
  <outline>
    <contour>
      <point x="42" y="172" type="line"/>
      <point x="581" y="172" type="line"/>
      <point x="581" y="305" type="line"/>
      <point x="42" y="305" type="line"/>
    </contour>
  </outline>
</glyph>
<glyph name="quoteleft" format="1">
  <advance width="255"/>
  <unicode hex="2018"/>
  <outline>
    <contour>
      <point x="140" y="789" type="line"/>
      <point x="109" y="765"/>
      <point x="30" y="676"/>
      <point x="30" y="573" type="curve"/>
      <point x="165" y="662" type="line"/>
      <point x="139" y="678"/>
      <point x="158" y="736"/>
      <point x="183" y="762" type="curve"/>
    </contour>
    <contour>
      <point x="127" y="475" type="curve" smooth="yes"/>
      <point x="181" y="475"/>
      <point x="225" y="519"/>
      <point x="225" y="573" type="curve" smooth="yes"/>
      <point x="225" y="626"/>
      <point x="181" y="670"/>
      <point x="127" y="670" type="curve" smooth="yes"/>
      <point x="74" y="670"/>
      <point x="30" y="626"/>
      <point x="30" y="573" type="curve" smooth="yes"/>
      <point x="30" y="519"/>
      <point x="74" y="475"/>
    </contour>
  </outline>
</glyph>
<glyph name="bullet" format="1">
  <advance width="348"/>
  <unicode hex="2022"/>
  <outline>
    <contour>
      <point x="60" y="269"/>
      <point x="107" y="214"/>
      <point x="173" y="214" type="curve" smooth="yes"/>
      <point x="248" y="214"/>
      <point x="288" y="262"/>
      <point x="288" y="322" type="curve" smooth="yes"/>
      <point x="288" y="373"/>
      <point x="246" y="436"/>
      <point x="173" y="436" type="curve" smooth="yes"/>
      <point x="100" y="436"/>
      <point x="60" y="373"/>
      <point x="60" y="322" type="curve" smooth="yes"/>
    </contour>
  </outline>
</glyph>
<glyph name="guilsinglleft" format="1">
  <advance width="342"/>
  <unicode hex="2039"/>
  <outline>
    <contour>
      <point x="161" y="460" type="line"/>
      <point x="20" y="230" type="line"/>
      <point x="171" y="230" type="line"/>
      <point x="312" y="460" type="line"/>
    </contour>
    <contour>
      <point x="161" y="0" type="line"/>
      <point x="312" y="0" type="line"/>
      <point x="171" y="230" type="line"/>
      <point x="20" y="230" type="line"/>
    </contour>
  </outline>
</glyph>
<glyph name="euro" format="1">
  <advance width="679"/>
  <unicode hex="20AC"/>
  <outline>
    <contour>
      <point x="572" y="188" type="line"/>
      <point x="563" y="178"/>
      <point x="517" y="128"/>
      <point x="423" y="128" type="curve" smooth="yes"/>
      <point x="308" y="128"/>
      <point x="247" y="219"/>
      <point x="247" y="351" type="curve"/>
      <point x="53" y="351" type="line"/>
      <point x="53" y="123"/>
      <point x="194" y="-16"/>
      <point x="406" y="-16" type="curve" smooth="yes"/>
      <point x="527" y="-16"/>
      <point x="601" y="22"/>
      <point x="669" y="98" type="curve"/>
    </contour>
    <contour>
      <point x="0" y="490" type="line"/>
      <point x="0" y="391" type="line"/>
      <point x="436" y="391" type="line"/>
      <point x="436" y="490" type="line"/>
    </contour>
    <contour>
      <point x="0" y="306" type="line"/>
      <point x="0" y="207" type="line"/>
      <point x="436" y="207" type="line"/>
      <point x="436" y="306" type="line"/>
    </contour>
    <contour>
      <point x="572" y="515" type="curve"/>
      <point x="669" y="604" type="line"/>
      <point x="601" y="681"/>
      <point x="527" y="719"/>
      <point x="406" y="719" type="curve" smooth="yes"/>
      <point x="194" y="719"/>
      <point x="53" y="580"/>
      <point x="53" y="351" type="curve"/>
      <point x="247" y="351" type="line"/>
      <point x="247" y="483"/>
      <point x="308" y="574"/>
      <point x="423" y="574" type="curve" smooth="yes"/>
      <point x="517" y="574"/>
      <point x="563" y="525"/>
    </contour>
  </outline>
</glyph>
<glyph name="minus" format="1">
  <advance width="833"/>
  <unicode hex="2212"/>
  <outline>
    <contour>
      <point x="212" y="172" type="line"/>
      <point x="581" y="172" type="line"/>
      <point x="581" y="305" type="line"/>
      <point x="212" y="305" type="line"/>
    </contour>
  </outline>
</glyph>
<glyph name="lozenge" format="1">
  <advance width="560"/>
  <unicode hex="25CA"/>
  <outline>
    <contour>
      <point x="223" y="699" type="line"/>
      <point x="10" y="350" type="line"/>
      <point x="107" y="350" type="line"/>
      <point x="320" y="699" type="line"/>
    </contour>
    <contour>
      <point x="223" y="0" type="line"/>
      <point x="320" y="0" type="line"/>
      <point x="107" y="350" type="line"/>
      <point x="10" y="350" type="line"/>
    </contour>
    <contour>
      <point x="337" y="699" type="line"/>
      <point x="240" y="699" type="line"/>
      <point x="453" y="350" type="line"/>
      <point x="550" y="350" type="line"/>
    </contour>
    <contour>
      <point x="337" y="0" type="line"/>
      <point x="550" y="350" type="line"/>
      <point x="453" y="350" type="line"/>
      <point x="240" y="0" type="line"/>
    </contour>
  </outline>
</glyph>
